<svg width="40" height="42" viewBox="0 0 40 42" fill="none" xmlns="http://www.w3.org/2000/svg">
<path fill-rule="evenodd" clip-rule="evenodd" d="M36.2327 3.70593L37.1925 19.0271C37.1925 30.765 20.222 37.002 20.222 37.002C20.222 37.002 3.25097 30.765 3.25097 19.0271C3.25097 17.1671 4.12934 4.45581 4.21078 3.70593C3.58513 3.79393 2.96005 3.88411 2.33722 3.98249C2.30015 4.18417 0.721436 18.674 0.721436 20.5334C0.721436 32.2713 20.222 42 20.222 42C20.222 42 39.7214 32.2713 39.7214 20.5334C39.7214 18.674 38.1433 4.18417 38.1057 3.98249L36.2327 3.70593Z" fill="#4F6893"/>
<path fill-rule="evenodd" clip-rule="evenodd" d="M36.2326 3.70593L37.1924 19.0271C37.1924 30.765 20.2214 37.002 20.2214 37.002L20.2214 42C20.2214 42 39.7214 32.2713 39.7214 20.5334C39.7214 18.674 38.1432 4.18417 38.1056 3.98249L36.2326 3.70593Z" fill="#32466A"/>
<path fill-rule="evenodd" clip-rule="evenodd" d="M36.2327 3.70593C36.3141 4.45581 37.6258 17.6023 37.6258 19.4622C37.6258 31.2001 20.222 41.7888 20.222 41.7888C20.222 41.7888 2.81764 31.2001 2.81764 19.4622C2.81764 17.6023 4.12934 4.45581 4.21078 3.70593C3.58513 3.79393 2.96005 3.88411 2.33722 3.98249C2.30015 4.18417 0.721436 18.674 0.721436 20.5334C0.721436 32.2713 20.222 42 20.222 42C20.222 42 39.7214 32.2713 39.7214 20.5334C39.7214 18.674 38.1433 4.18417 38.1057 3.98249C37.4834 3.88411 36.8583 3.79393 36.2327 3.70593Z" fill="#88AFE4"/>
<path fill-rule="evenodd" clip-rule="evenodd" d="M6.81746 2.60574L6.81519 7.41176C6.81519 7.41176 12.0937 5.02209 16.1257 5.07997H24.3183C28.7668 5.15488 33.6271 7.41176 33.6271 7.41176L33.6277 2.60574C31.4561 1.87199 27.5635 0.63998 24.3843 0.230257C23.496 0.115907 22.4458 0.0441488 21.3543 0.0149812C20.5519 -0.00646122 19.7272 -0.00488592 18.9281 0.0197071C17.8958 0.0514773 16.9062 0.12166 16.0626 0.230257C12.8834 0.63998 8.98906 1.87142 6.81746 2.60574Z" fill="#32466A"/>
<path fill-rule="evenodd" clip-rule="evenodd" d="M16.5652 5.00084L20.2214 33.3529L23.8598 5.00084L21.4846 0H19.0394L16.5652 5.00084Z" fill="#4F6893"/>
<path fill-rule="evenodd" clip-rule="evenodd" d="M6.81746 2.5716L6.81519 7.31464C6.81519 7.31464 14.731 0.509223 18.763 0.566348L20.222 33.3529L21.6657 0.566348C26.1142 0.640275 33.6271 7.31464 33.6271 7.31464L33.6277 2.5716C31.4561 1.84746 27.5635 0.631594 24.3843 0.227239C21.9993 -0.0757465 18.4475 -0.0757465 16.0626 0.227239C12.8834 0.631594 8.98906 1.8469 6.81746 2.5716Z" fill="#88AFE4"/>
</svg>
