<svg width="526" height="494" viewBox="0 0 526 494" fill="none" xmlns="http://www.w3.org/2000/svg">
<g opacity="0.7">
<path opacity="0.01" d="M188.06 483.651C191.14 481.857 191.153 478.912 188.08 477.098L29.0066 383.264C25.9341 381.45 20.9356 381.49 17.8894 383.344L2.90703 392.474C-0.139221 394.328 -0.113037 397.327 2.95288 399.14L161.411 492.613C164.483 494.427 169.514 494.441 172.593 492.647L188.06 483.651Z" fill="#3C5186"/>
<path opacity="0.0244" d="M187.89 483.564C190.963 481.777 190.969 478.838 187.91 477.038L29.0852 383.324C26.0258 381.517 21.0405 381.557 18.0073 383.404L3.07736 392.501C0.0442047 394.348 0.063858 397.34 3.12321 399.14L161.339 492.5C164.398 494.307 169.41 494.32 172.482 492.533L187.89 483.564Z" fill="#3C5186"/>
<path opacity="0.0488" d="M187.713 483.484C190.773 481.703 190.779 478.778 187.733 476.984L29.1572 383.391C26.111 381.59 21.1453 381.631 18.1252 383.471L3.25423 392.534C0.234177 394.375 0.253845 397.353 3.30009 399.154L161.267 492.379C164.313 494.173 169.311 494.193 172.364 492.413L187.713 483.484Z" fill="#3C5186"/>
<path opacity="0.0732" d="M187.543 483.403C190.589 481.63 190.596 478.718 187.563 476.924L29.2359 383.445C26.2027 381.651 21.2566 381.691 18.2431 383.525L3.42458 392.554C0.411072 394.388 0.437271 397.353 3.47043 399.147L161.188 492.265C164.221 494.059 169.2 494.073 172.246 492.299L187.543 483.403Z" fill="#3C5186"/>
<path opacity="0.0976" d="M187.373 483.316C190.406 481.549 190.412 478.644 187.392 476.864L29.3079 383.505C26.2813 381.718 21.3549 381.758 18.3545 383.585L3.59488 392.581C0.594482 394.408 0.614136 397.367 3.64073 399.147L161.116 492.152C164.142 493.939 169.095 493.952 172.135 492.185L187.373 483.316Z" fill="#3C5186"/>
<path opacity="0.122" d="M187.202 483.236C190.229 481.476 190.235 478.584 187.222 476.804L29.3865 383.565C26.373 381.785 21.4663 381.825 18.479 383.645L3.77177 392.608C0.784485 394.428 0.804123 397.373 3.81763 399.147L161.044 492.031C164.057 493.805 168.997 493.825 172.017 492.064L187.202 483.236Z" fill="#3C5186"/>
<path opacity="0.1463" d="M187.025 483.156C190.039 481.402 190.045 478.524 187.045 476.75L29.4586 383.632C26.4582 381.858 21.5645 381.898 18.5903 383.712L3.94209 392.641C0.967896 394.455 0.987564 397.387 3.98796 399.161L160.972 491.917C163.972 493.691 168.892 493.704 171.906 491.951L187.025 483.156Z" fill="#3C5186"/>
<path opacity="0.1707" d="M186.855 483.069C189.855 481.322 189.862 478.45 186.875 476.69L29.5372 383.692C26.5499 381.925 21.6759 381.965 18.7083 383.773L4.11244 392.668C1.14479 394.475 1.16444 397.4 4.15829 399.161L160.9 491.803C163.887 493.571 168.794 493.584 171.794 491.837L186.855 483.069Z" fill="#3C5186"/>
<path opacity="0.1951" d="M186.685 482.988C189.672 481.248 189.685 478.39 186.704 476.63L29.6158 383.752C26.6351 381.992 21.7807 382.032 18.8262 383.833L4.28931 392.695C1.33476 394.495 1.35442 397.407 4.33516 399.161L160.821 491.69C163.802 493.45 168.682 493.463 171.67 491.723L186.685 482.988Z" fill="#3C5186"/>
<path opacity="0.2195" d="M186.508 482.908C189.482 481.174 189.495 478.33 186.528 476.576L29.6879 383.813C26.7202 382.059 21.8855 382.099 18.9441 383.893L4.45963 392.722C1.51819 394.515 1.53784 397.414 4.50549 399.167L160.749 491.576C163.717 493.33 168.578 493.343 171.558 491.609L186.508 482.908Z" fill="#3C5186"/>
<path opacity="0.2439" d="M186.338 482.821C189.305 481.094 189.312 478.256 186.357 476.516L29.7599 383.873C26.8054 382.126 21.9904 382.166 19.0555 383.953L4.62996 392.748C1.70161 394.535 1.72127 397.42 4.67581 399.167L160.677 491.455C163.631 493.202 168.479 493.216 171.447 491.489L186.338 482.821Z" fill="#3C5186"/>
<path opacity="0.2683" d="M186.167 482.741C189.122 481.02 189.128 478.196 186.187 476.456L29.8386 383.933C26.8971 382.2 22.0952 382.233 19.1734 384.013L4.80029 392.775C1.87851 394.556 1.89816 397.434 4.84616 399.167L160.605 491.342C163.546 493.082 168.374 493.095 171.329 491.375L186.167 482.741Z" fill="#3C5186"/>
<path opacity="0.2927" d="M185.997 482.66C188.938 480.947 188.951 478.129 186.017 476.402L29.9172 384C26.9823 382.267 22.2065 382.307 19.2979 384.08L4.98372 392.809C2.07503 394.582 2.09468 397.447 5.02957 399.181L160.533 491.221C163.468 492.955 168.276 492.968 171.218 491.255L185.997 482.66Z" fill="#3C5186"/>
<path opacity="0.3171" d="M185.82 482.573C188.755 480.867 188.761 478.062 185.84 476.342L29.9892 384.06C27.0675 382.34 22.3048 382.374 19.4092 384.141L5.14751 392.835C2.25192 394.602 2.27159 397.454 5.19337 399.181L160.454 491.121C163.376 492.841 168.165 492.861 171.1 491.154L185.82 482.573Z" fill="#3C5186"/>
<path opacity="0.3415" d="M185.65 482.493C188.571 480.793 188.578 478.002 185.669 476.282L30.0678 384.114C27.1591 382.394 22.4162 382.434 19.5271 384.188L5.32437 392.842C2.43533 394.602 2.46153 397.447 5.37022 399.161L160.382 490.994C163.291 492.707 168.06 492.727 170.982 491.027L185.65 482.493Z" fill="#3C5186"/>
<path opacity="0.3659" d="M185.479 482.413C188.388 480.719 188.395 477.935 185.499 476.228L30.1399 384.181C27.2378 382.467 22.5145 382.507 19.6451 384.254L5.49471 392.875C2.61877 394.629 2.63844 397.46 5.54057 399.167L160.317 490.866C163.212 492.573 167.968 492.593 170.877 490.9L185.479 482.413Z" fill="#3C5186"/>
<path opacity="0.3902" d="M185.309 482.326C188.205 480.639 188.218 477.868 185.329 476.161L30.2185 384.234C27.3295 382.528 22.6258 382.568 19.763 384.308L5.67159 392.896C2.80876 394.643 2.8284 397.46 5.71744 399.167L160.238 490.759C163.127 492.459 167.857 492.479 170.759 490.793L185.309 482.326Z" fill="#3C5186"/>
<path opacity="0.4146" d="M185.132 482.245C188.021 480.565 188.028 477.808 185.152 476.108L30.2906 384.301C27.4147 382.601 22.7306 382.641 19.8744 384.375L5.83537 392.929C2.98564 394.669 3.00531 397.481 5.88124 399.174L160.166 490.646C163.042 492.339 167.759 492.359 170.641 490.679L185.132 482.245Z" fill="#3C5186"/>
<path opacity="0.439" d="M184.962 482.165C187.838 480.492 187.844 477.741 184.981 476.054L30.3692 384.368C27.5064 382.681 22.8354 382.715 19.9923 384.442L6.01224 392.963C3.16907 394.696 3.18871 397.494 6.05809 399.181L160.094 490.525C162.957 492.218 167.654 492.232 170.53 490.559L184.962 482.165Z" fill="#3C5186"/>
<path opacity="0.4634" d="M184.791 482.078C187.654 480.411 187.661 477.674 184.811 475.987L30.4478 384.422C27.5915 382.742 22.9468 382.775 20.1167 384.495L6.18912 392.983C3.35904 394.709 3.37871 397.494 6.23499 399.181L160.028 490.411C162.885 492.091 167.562 492.111 170.425 490.445L184.791 482.078Z" fill="#3C5186"/>
<path opacity="0.4878" d="M184.615 481.998C187.464 480.338 187.477 477.607 184.634 475.933L30.5199 384.482C27.6767 382.809 23.0451 382.842 20.2281 384.556L6.35945 393.009C3.54248 394.73 3.56213 397.507 6.4053 399.181L159.943 490.297C162.786 491.971 167.444 491.991 170.294 490.331L184.615 481.998Z" fill="#3C5186"/>
<path opacity="0.5122" d="M184.444 481.917C187.287 480.264 187.294 477.547 184.464 475.88L30.5919 384.549C27.7619 382.882 23.1499 382.916 20.3395 384.623L6.52322 393.043C3.71936 394.756 3.739 397.521 6.56908 399.187L159.871 490.177C162.701 491.844 167.339 491.864 170.183 490.21L184.444 481.917Z" fill="#3C5186"/>
<path opacity="0.5366" d="M184.274 481.83C187.104 480.184 187.111 477.48 184.294 475.813L30.6705 384.602C27.8536 382.936 23.2547 382.976 20.464 384.676L6.70667 393.063C3.90935 394.77 3.929 397.521 6.74597 399.187L159.799 490.063C162.616 491.73 167.241 491.743 170.071 490.097L184.274 481.83Z" fill="#3C5186"/>
<path opacity="0.561" d="M184.104 481.75C186.921 480.11 186.927 477.413 184.123 475.759L30.7492 384.669C27.9387 383.016 23.3661 383.05 20.5819 384.743L6.87698 393.096C4.09277 394.796 4.11243 397.534 6.91629 399.194L159.727 489.956C162.537 491.609 167.136 491.629 169.953 489.99L184.104 481.75Z" fill="#3C5186"/>
<path opacity="0.5854" d="M183.927 481.663C186.731 480.03 186.737 477.346 183.946 475.699L30.8212 384.73C28.0239 383.083 23.4709 383.117 20.6932 384.803L7.04732 393.123C4.2762 394.81 4.29585 397.547 7.08662 399.194L159.655 489.836C162.452 491.482 167.038 491.502 169.842 489.869L183.927 481.663Z" fill="#3C5186"/>
<path opacity="0.6098" d="M183.756 481.583C186.554 479.956 186.56 477.286 183.776 475.639L30.8998 384.783C28.1156 383.143 23.5757 383.177 20.8177 384.857L7.22418 393.143C4.45963 394.83 4.47928 397.547 7.26349 399.194L159.576 489.715C162.361 491.355 166.927 491.375 169.724 489.749L183.756 481.583Z" fill="#3C5186"/>
<path opacity="0.6341" d="M183.586 481.502C186.37 479.883 186.377 477.219 183.606 475.585L30.9719 384.85C28.2008 383.217 23.6805 383.244 20.9291 384.924L7.39453 393.177C4.64307 394.85 4.66272 397.561 7.43384 399.201L159.504 489.601C162.275 491.235 166.822 491.255 169.606 489.635L183.586 481.502Z" fill="#3C5186"/>
<path opacity="0.6585" d="M183.409 481.422C186.18 479.809 186.187 477.158 183.429 475.525L31.044 384.91C28.2794 383.284 23.7788 383.311 21.0405 384.984L7.5583 393.203C4.81995 394.87 4.8396 397.574 7.59761 399.201L159.432 489.488C162.197 491.114 166.724 491.134 169.495 489.521L183.409 481.422Z" fill="#3C5186"/>
<path opacity="0.6829" d="M183.239 481.335C185.997 479.729 186.003 477.085 183.259 475.465L31.1226 384.971C28.3711 383.351 23.8902 383.378 21.1584 385.044L7.73518 393.23C5.00993 394.89 5.02303 397.581 7.77449 399.201L159.36 489.367C162.112 490.987 166.619 491.007 169.383 489.401L183.239 481.335Z" fill="#3C5186"/>
<path opacity="0.7073" d="M183.069 481.255C185.82 479.655 185.827 477.024 183.088 475.411L31.2012 385.038C28.4628 383.424 23.995 383.451 21.2828 385.111L7.91206 393.264C5.19336 394.917 5.21301 397.594 7.95137 399.214L159.288 489.253C162.026 490.866 166.521 490.88 169.265 489.287L183.069 481.255Z" fill="#3C5186"/>
<path opacity="0.7317" d="M182.898 481.168C185.637 479.575 185.643 476.958 182.918 475.344L31.2733 385.091C28.548 383.485 24.0998 383.511 21.3942 385.165L8.08238 393.277C5.37679 394.924 5.39644 397.594 8.12169 399.201L159.216 489.139C161.941 490.746 166.416 490.766 169.154 489.173L182.898 481.168Z" fill="#3C5186"/>
<path opacity="0.7561" d="M182.721 481.087C185.447 479.501 185.453 476.891 182.741 475.291L31.3453 385.151C28.6266 383.552 24.2046 383.578 21.5056 385.225L8.24617 393.304C5.55367 394.944 5.57332 397.601 8.28548 399.201L159.137 489.019C161.856 490.619 166.304 490.632 169.036 489.046L182.721 481.087Z" fill="#3C5186"/>
<path opacity="0.7805" d="M182.551 481.007C185.263 479.427 185.276 476.83 182.571 475.237L31.4239 385.218C28.7183 383.625 24.3094 383.652 21.6301 385.292L8.4296 393.337C5.74365 394.971 5.76331 397.614 8.4689 399.214L159.065 488.905C161.771 490.498 166.206 490.512 168.918 488.939L182.551 481.007Z" fill="#3C5186"/>
<path opacity="0.8049" d="M182.381 480.92C185.086 479.347 185.093 476.763 182.4 475.17L31.5025 385.272C28.81 383.685 24.4208 383.712 21.748 385.345L8.59993 393.357C5.92708 394.984 5.94673 397.621 8.63924 399.207L158.993 488.791C161.686 490.378 166.101 490.391 168.807 488.825L182.381 480.92Z" fill="#3C5186"/>
<path opacity="0.8293" d="M182.21 480.84C184.903 479.273 184.909 476.697 182.23 475.117L31.5746 385.339C28.8952 383.759 24.5191 383.786 21.8593 385.412L8.77025 393.391C6.1105 395.011 6.13016 397.634 8.80956 399.214L158.921 488.671C161.601 490.251 166.003 490.264 168.695 488.698L182.21 480.84Z" fill="#3C5186"/>
<path opacity="0.8537" d="M182.033 480.759C184.713 479.2 184.719 476.636 182.053 475.057L31.6532 385.399C28.9804 383.826 24.6304 383.853 21.9838 385.473L8.94713 393.418C6.30049 395.031 6.31358 397.641 8.98643 399.221L158.849 488.557C161.522 490.13 165.898 490.144 168.578 488.584L182.033 480.759Z" fill="#3C5186"/>
<path opacity="0.878" d="M181.863 480.672C184.529 479.12 184.543 476.563 181.883 474.996L31.7253 385.453C29.0655 383.886 24.7287 383.913 22.0952 385.526L9.11746 393.438C6.47737 395.044 6.49702 397.641 9.15677 399.214L158.771 488.443C161.43 490.01 165.787 490.023 168.46 488.47L181.863 480.672Z" fill="#3C5186"/>
<path opacity="0.9024" d="M181.693 480.592C184.353 479.046 184.359 476.502 181.712 474.943L31.8039 385.519C29.1573 383.96 24.8401 383.987 22.2131 385.586L9.2878 393.465C6.66081 395.064 6.68047 397.655 9.3271 399.214L158.699 488.33C161.345 489.889 165.689 489.903 168.348 488.356L181.693 480.592Z" fill="#3C5186"/>
<path opacity="0.9268" d="M181.516 480.512C184.163 478.972 184.169 476.442 181.536 474.883L31.8759 385.58C29.2359 384.027 24.9449 384.054 22.3245 385.647L9.45811 393.491C6.84422 395.084 6.86388 397.661 9.49742 399.214L158.626 488.209C161.267 489.762 165.584 489.775 168.23 488.236L181.516 480.512Z" fill="#3C5186"/>
<path opacity="0.9512" d="M181.346 480.425C183.979 478.892 183.986 476.369 181.359 474.822L31.948 385.64C29.321 384.094 25.0432 384.121 22.4424 385.707L9.62845 393.518C7.02766 395.104 7.04077 397.668 9.66776 399.221L158.554 488.095C161.181 489.642 165.485 489.655 168.119 488.122L181.346 480.425Z" fill="#3C5186"/>
<path opacity="0.9756" d="M181.175 480.344C183.796 478.818 183.809 476.308 181.195 474.769L32.0332 385.707C29.4193 384.167 25.1611 384.194 22.5668 385.774L9.81187 393.552C7.21764 395.131 7.23729 397.688 9.85118 399.227L158.489 487.982C161.103 489.521 165.387 489.534 168.014 488.008L181.175 480.344Z" fill="#3C5186"/>
<path d="M181.005 480.264C183.619 478.745 183.625 476.248 181.018 474.709L32.0987 385.76C29.4979 384.228 25.2528 384.254 22.6717 385.827L9.9691 393.572C7.38797 395.145 7.40762 397.688 10.0084 399.221L158.41 487.861C161.011 489.394 165.282 489.407 167.89 487.888L181.005 480.264Z" fill="#3C5186"/>
</g>
<path d="M185.661 480.027C188.636 478.287 188.643 475.425 185.68 473.672L32.144 382.618C29.1813 380.858 24.3547 380.898 21.4116 382.699L6.95137 391.559C4.01485 393.36 4.03448 396.269 6.99716 398.029L159.938 488.727C162.901 490.487 167.76 490.5 170.73 488.76L185.661 480.027Z" fill="#FCC00E"/>
<path d="M185.661 478.273C188.636 476.534 188.643 473.672 185.68 471.918L32.144 380.864C29.1813 379.104 24.3547 379.144 21.4116 380.945L6.95137 389.806C4.01485 391.606 4.03448 394.515 6.99716 396.275L159.938 486.973C162.901 488.733 167.76 488.747 170.73 487.007L185.661 478.273Z" fill="url(#paint0_linear_2_5191)"/>
<path d="M180.195 469.432L170.401 475.149L168.215 473.877L177.925 468.134L180.195 469.432Z" fill="#3C5186"/>
<path d="M168.215 462.444L161.776 466.38L159.657 465.088L166.014 461.119L168.215 462.444Z" fill="#3C5186"/>
<path d="M156.234 455.429L149.793 459.365L147.676 458.073L154.034 454.104L156.234 455.429Z" fill="#3C5186"/>
<path d="M144.253 447.542L137.814 451.473L135.695 450.183L142.052 446.212L144.253 447.542Z" fill="#3C5186"/>
<path d="M132.272 440.5L122.477 446.212L120.291 444.941L130.001 439.197L132.272 440.5Z" fill="#3C5186"/>
<path d="M120.291 433.512L113.857 437.443L111.734 436.146L118.092 432.182L120.291 433.512Z" fill="#3C5186"/>
<path d="M108.311 426.497L101.872 430.428L99.7528 429.131L106.109 425.167L108.311 426.497Z" fill="#3C5186"/>
<path d="M96.3297 419.482L89.8893 423.413L87.772 422.116L94.1302 418.152L96.3297 419.482Z" fill="#3C5186"/>
<path d="M84.3489 412.441L74.5541 418.152L72.3681 416.886L82.078 411.137L84.3489 412.441Z" fill="#3C5186"/>
<path d="M72.3681 405.452L65.9276 409.383L63.8103 408.086L70.1686 404.122L72.3681 405.452Z" fill="#3C5186"/>
<path d="M60.3872 398.439L53.9484 402.368L51.8295 401.076L58.1861 397.107L60.3872 398.439Z" fill="#3C5186"/>
<path d="M48.4064 391.417L41.9676 395.353L39.8487 394.061L46.2053 390.092L48.4064 391.417Z" fill="#3C5186"/>
<path d="M36.4256 384.375L26.6308 390.092L24.4448 388.82L34.1547 383.077L36.4256 384.375Z" fill="#3C5186"/>
<path d="M122.768 403.047L227.705 462.628L222.668 472.028L122.768 414.991L113.498 403.843L122.768 403.047Z" fill="url(#paint1_linear_2_5191)"/>
<path d="M123.015 403.047V415.272L113.498 403.861L123.015 403.047Z" fill="#F4F8FD"/>
<path d="M116.093 403.92L114.363 404.095L116.093 406.54V403.92Z" fill="#3C5186"/>
<path d="M225.539 462.926C223.394 464.105 221.642 467.006 221.648 469.369C221.655 471.739 223.407 472.704 225.545 471.526C227.683 470.347 229.435 467.446 229.435 465.076C229.435 462.712 227.676 461.747 225.539 462.926Z" fill="#FCC00E"/>
<path d="M225.538 462.927C223.393 464.102 221.642 467.008 221.648 469.372C221.655 471.736 223.407 472.706 225.545 471.524C227.683 470.342 229.435 467.444 229.435 465.08C229.435 462.716 227.677 461.745 225.538 462.927Z" fill="#F4F8FD"/>
<path d="M225.974 466.054C225.497 466.376 225.109 467.166 225.109 467.812C225.109 468.457 225.503 468.72 225.974 468.398C226.452 468.075 226.84 467.285 226.84 466.64C226.845 465.994 226.452 465.731 225.974 466.054Z" fill="#3C5186"/>
<path d="M208.594 396.972L252.619 371.062V370.454L189.248 335.481L155.945 365.771L208.594 396.972Z" fill="#626D9B"/>
<path d="M208.594 396.372L252.619 370.454L189.248 334.874L155.945 365.171L208.594 396.372Z" fill="#3C5186"/>
<path d="M206.807 395.765L250.832 369.847L251.13 361.601L187.468 333.66L154.158 363.956L206.807 395.765Z" fill="#F1F2F2"/>
<path d="M182.18 319.84L252.619 360.697V361.304L208.594 387.215L138.155 345.751L182.18 319.84Z" fill="#626D9B"/>
<path d="M182.18 319.233L252.619 360.697L208.594 386.608L138.155 345.151L182.18 319.233Z" fill="#3C5186"/>
<path d="M191.353 328.923L211.142 340.529L175.727 361.372L155.945 349.766L191.353 328.923Z" fill="white"/>
<path d="M138.75 345.448V355.535L208.594 396.972L209.183 396.628V386.912L138.75 345.448Z" fill="#626D9B"/>
<path d="M138.155 345.151V355.232L208.594 396.972V386.608L138.155 345.151Z" fill="#3C5186"/>
<path d="M197.078 380.404L233.911 358.451V357.933L180.899 328.302L153.032 353.972L197.078 380.404Z" fill="#E4EDF8"/>
<path d="M197.078 379.893L233.911 357.933L180.899 327.792L153.032 353.454L197.078 379.893Z" fill="#D1E1F2"/>
<path d="M195.588 379.383L232.421 357.423L232.672 350.439L179.41 326.764L151.542 352.433L195.588 379.383Z" fill="white"/>
<path d="M174.979 315.049L233.911 349.67V350.18L197.078 372.14L138.153 337.008L174.979 315.049Z" fill="#E4EDF8"/>
<path d="M174.979 314.538L233.911 349.67L197.078 371.622L138.153 336.498L174.979 314.538Z" fill="#D1E1F2"/>
<path d="M182.66 322.748L199.214 332.577L169.586 350.241L153.032 340.412L182.66 322.748Z" fill="white"/>
<path d="M138.647 336.75V345.293L197.078 380.404L197.579 380.111V371.881L138.647 336.75Z" fill="#E4EDF8"/>
<path d="M138.153 336.498V345.041L197.078 380.404V371.622L138.153 336.498Z" fill="#DAE7F5"/>
<path d="M373.544 120.786L172.963 0.663252C170.446 -0.826864 167.323 1.0478 167.323 4.02803V152.03C167.323 156.116 169.42 159.913 172.87 161.98L373.451 282.103C375.968 283.593 379.091 281.718 379.091 278.738V130.736C379.091 126.602 376.993 122.853 373.544 120.786Z" fill="#3C5186"/>
<path d="M375.082 281.478V133.476C375.082 129.39 372.984 125.593 369.535 123.574L168.954 3.4512C168.488 3.16279 167.975 3.01859 167.463 2.97052C168.115 0.615172 170.772 -0.634603 172.963 0.711308L373.544 120.834C376.993 122.901 379.091 126.65 379.091 130.736V278.738C379.091 281.142 377.04 282.824 374.942 282.584C375.036 282.199 375.082 281.863 375.082 281.478Z" fill="url(#paint2_linear_2_5191)"/>
<path d="M328.048 182.506H327.116V254.368L328.048 254.896V182.506Z" fill="#2E3D64"/>
<path d="M201.118 178.9L202.05 179.429V109.538H201.118V178.9Z" fill="#2E3D64"/>
<path d="M239.202 201.685L240.134 202.262V128.477H239.202V201.685Z" fill="#2E3D64"/>
<path d="M284.185 228.651L285.117 229.18V109.538H284.185V228.651Z" fill="#2E3D64"/>
<path d="M203.029 109.538C203.029 110.595 202.377 111.509 201.584 111.509C200.792 111.509 200.139 110.643 200.139 109.538C200.139 108.48 200.792 107.567 201.584 107.567C202.377 107.567 203.029 108.432 203.029 109.538Z" fill="#2E3D64"/>
<path d="M241.113 128.477C241.113 129.534 240.46 130.448 239.668 130.448C238.876 130.448 238.223 129.582 238.223 128.477C238.223 127.371 238.876 126.506 239.668 126.506C240.46 126.506 241.113 127.371 241.113 128.477Z" fill="#2E3D64"/>
<path d="M286.096 109.538C286.096 110.595 285.443 111.509 284.651 111.509C283.858 111.509 283.206 110.643 283.206 109.538C283.206 108.48 283.858 107.567 284.651 107.567C285.443 107.567 286.096 108.432 286.096 109.538Z" fill="#2E3D64"/>
<ellipse cx="327.582" cy="181.112" rx="1.44504" ry="1.9708" fill="#2E3D64"/>
<path opacity="0.1" d="M167.323 148.762V145.974C172.171 146.887 177.205 146.022 181.54 143.282L186.295 140.302C194.173 135.351 203.775 134.966 211.979 139.292L218.692 142.801C230.159 148.81 243.723 148.665 255.051 142.417L257.987 140.782C264.327 137.273 271.599 136.648 278.451 138.956C285.303 141.263 290.757 146.262 293.834 152.944L313.318 195.388C321.243 212.644 334.015 226.728 350.237 236.006L379.091 252.589V255.762L348.932 238.457C332.244 228.891 319.099 214.423 310.894 196.59L291.41 154.145C288.659 148.137 283.765 143.666 277.612 141.551C271.459 139.484 264.979 140.061 259.293 143.186L256.356 144.82C244.236 151.453 229.739 151.598 217.526 145.205L210.814 141.696C203.449 137.802 194.779 138.138 187.74 142.609L182.985 145.589C178.184 148.617 172.637 149.627 167.323 148.762Z" fill="#232752"/>
<path d="M382.494 250.474C382.96 250.474 383.426 250.234 383.659 249.753C384.032 249.08 383.799 248.263 383.146 247.878L352.94 230.526C336.719 221.249 323.993 207.165 316.022 189.908L296.537 147.464C293.461 140.782 288.007 135.783 281.155 133.476C274.302 131.169 267.077 131.793 260.691 135.302L257.754 136.937C246.427 143.186 232.816 143.33 221.395 137.321L214.683 133.812C206.479 129.486 196.876 129.871 188.998 134.822L184.244 137.802C177.858 141.792 169.933 141.888 163.454 138.042L159.585 135.735C158.932 135.351 158.14 135.591 157.767 136.264C157.394 136.937 157.627 137.754 158.28 138.139L162.149 140.446C169.467 144.772 178.464 144.676 185.642 140.157L190.397 137.177C197.482 132.755 206.106 132.418 213.471 136.264L220.183 139.773C232.396 146.166 246.94 146.022 259.013 139.388L261.95 137.754C267.636 134.63 274.162 134.053 280.269 136.12C286.422 138.187 291.316 142.657 294.067 148.714L313.551 191.158C321.709 208.943 334.901 223.412 351.589 233.025L381.795 250.378C382.028 250.426 382.261 250.474 382.494 250.474Z" fill="url(#paint3_linear_2_5191)"/>
<path opacity="0.3" d="M373.258 120.425L312.942 84.097V154.299C312.942 155.502 313.777 156.946 314.752 157.571L378.733 195.872V130.385C378.78 126.247 376.692 122.494 373.258 120.425Z" fill="#2E3D64"/>
<path d="M324.305 35.7662C324.305 34.5669 325.144 34.0873 326.124 34.6629L493.975 134.294C494.955 134.87 495.795 136.357 495.795 137.556V244.286C495.795 245.486 494.955 245.965 493.975 245.39L326.124 145.759C325.144 145.183 324.305 143.696 324.305 142.497V35.7662Z" fill="#4A66A4"/>
<path fill-rule="evenodd" clip-rule="evenodd" d="M457.448 206.919C455.955 207.254 454.369 207.398 452.782 207.398C452.036 207.398 451.336 207.35 450.636 207.206C448.351 207.015 445.971 206.487 443.639 205.671C441.353 204.904 439.02 203.801 436.688 202.41C434.495 201.066 432.256 199.484 430.063 197.661C428.011 195.934 426.005 193.967 424.045 191.856C422.179 189.794 420.36 187.539 418.68 185.189C417.001 182.838 415.461 180.392 414.015 177.85C412.616 175.355 411.309 172.717 410.19 170.079C409.023 167.392 408.044 164.658 407.251 161.972C406.458 159.19 405.805 156.408 405.385 153.721C404.965 150.891 404.732 148.109 404.732 145.423C404.732 142.641 404.965 140.002 405.431 137.556C405.898 135.061 406.644 132.711 407.624 130.6C408.604 128.394 409.863 126.427 411.356 124.7C412.896 122.973 414.668 121.486 416.581 120.335C417.654 119.711 418.82 119.136 420.033 118.704C421.619 118.129 423.299 117.889 424.978 117.889H425.725L425.631 131.8C424.838 131.991 424.092 132.279 423.439 132.663C422.786 133.047 422.179 133.526 421.666 134.15C421.106 134.822 420.546 135.685 420.126 136.644C419.613 137.748 419.24 138.995 418.96 140.386C418.634 141.921 418.494 143.648 418.494 145.471C418.494 147.341 418.68 149.404 419.007 151.467C419.333 153.577 419.8 155.736 420.453 157.895C421.106 160.053 421.899 162.26 422.832 164.418C423.719 166.577 424.792 168.736 425.958 170.798C427.124 172.861 428.43 174.876 429.783 176.794C431.183 178.713 432.629 180.536 434.122 182.167C435.615 183.846 437.201 185.333 438.787 186.676C440.373 188.019 442.006 189.17 443.592 190.13C445.085 191.041 446.624 191.713 448.071 192.24C449.377 192.72 450.636 193.008 451.803 193.104C452.876 193.2 453.809 193.152 454.695 192.96C455.488 192.816 456.235 192.528 456.888 192.144C457.541 191.761 458.147 191.233 458.66 190.609C459.22 189.938 459.78 189.074 460.2 188.115C460.713 187.012 461.086 185.764 461.366 184.373C461.693 182.838 461.833 181.111 461.833 179.289C461.833 177.418 461.693 175.355 461.366 173.293L474.988 171.038C475.408 173.868 475.642 176.65 475.642 179.337C475.642 182.119 475.362 184.757 474.895 187.204C474.429 189.746 473.682 192.096 472.703 194.207C471.723 196.414 470.463 198.38 468.97 200.107C467.431 201.834 465.705 203.321 463.745 204.472C461.786 205.624 459.687 206.439 457.448 206.919ZM450.543 147.965C451.943 149.884 453.202 151.899 454.369 153.961C455.535 156.024 456.608 158.182 457.494 160.389L469.017 155.208L470.137 154.681C469.017 151.994 467.711 149.404 466.311 146.862C464.865 144.319 463.326 141.825 461.646 139.523C459.967 137.172 458.147 134.918 456.281 132.855C454.369 130.744 452.316 128.778 450.263 127.051C448.071 125.228 445.831 123.645 443.592 122.302C441.26 120.959 438.88 119.855 436.594 119.04L432.209 132.519C433.655 132.999 435.195 133.718 436.734 134.63C438.321 135.589 439.953 136.74 441.539 138.084C443.126 139.427 444.712 140.962 446.205 142.593C447.744 144.271 449.19 146.046 450.543 147.965Z" fill="url(#paint4_linear_2_5191)"/>
<path d="M493.975 134.294L326.124 34.6629C325.144 34.0873 324.305 34.5669 324.305 35.7662V36.7735L491.316 135.925C492.296 136.501 493.136 137.988 493.136 139.187V244.91L493.929 245.39C494.909 245.965 495.748 245.486 495.748 244.286V137.556C495.795 136.357 494.955 134.918 493.975 134.294Z" fill="url(#paint5_linear_2_5191)"/>
<path d="M373.009 87.5724V94.9596L335.594 72.7501V65.0751L373.009 87.5724Z" fill="#EDF3FA"/>
<path d="M397.827 125.276V132.663L335.594 96.1588V88.4359L397.827 125.276Z" fill="#EDF3FA"/>
<path d="M397.827 144.751V152.138L335.594 115.634V107.911L397.827 144.751Z" fill="#EDF3FA"/>
<path d="M397.827 162.931V170.319L335.594 133.814V126.091L397.827 162.931Z" fill="#EDF3FA"/>
<path d="M525.847 375.525C525.847 381.344 521.895 383.701 517.013 380.719L414.207 317.721C409.371 314.739 405.326 307.574 405.28 301.707L404.35 214.038C404.303 208.219 408.209 205.863 413.091 208.796L517.013 271.891C521.848 274.824 525.847 282.038 525.847 287.857V375.525Z" fill="#3C5186"/>
<path d="M525.847 374.756V313.777C525.475 312.671 524.964 311.613 524.173 310.7C521.848 308.007 517.943 307.381 514.502 308.103C511.108 308.824 507.992 310.652 504.923 312.287C500.46 314.643 495.763 316.711 490.788 317.192C485.813 317.673 480.512 316.422 476.885 312.864C473.166 309.257 471.306 303.438 466.61 301.418C462.425 299.639 457.729 301.611 453.404 303.005C443.872 306.083 432.295 305.842 425.32 298.437C421.228 294.108 418.717 287.472 413.045 286.029C412.719 285.933 412.347 285.885 412.022 285.837C409.65 285.548 407.279 286.27 405.14 287.52L405.28 301.755C405.326 307.574 409.371 314.787 414.207 317.769L422.902 323.107C428.714 326.473 434.48 329.984 440.199 333.542C456.38 343.497 472.561 353.5 488.742 363.455L516.966 380.767C518.175 381.489 519.338 381.921 520.36 382.018C520.732 382.018 521.151 382.018 521.523 381.921C523.894 381.248 524.917 378.459 525.522 376.006C525.708 375.573 525.754 375.189 525.847 374.756Z" fill="url(#paint6_linear_2_5191)"/>
<path d="M522.778 377.641V290.069C522.778 284.25 518.78 277.036 513.944 274.103L410.022 211.008C408.302 209.95 406.721 209.614 405.373 209.806C406.814 207.354 409.743 206.825 413.138 208.892L517.059 271.987C521.895 274.92 525.894 282.134 525.894 287.953V375.573C525.894 379.324 524.266 381.585 521.802 381.969C522.406 380.863 522.778 379.421 522.778 377.641Z" fill="url(#paint7_linear_2_5191)"/>
<path d="M196.336 93.1865C196.522 92.9508 196.569 92.6208 196.569 92.2908C196.569 91.9608 196.476 91.6309 196.29 91.348C196.104 91.018 195.918 90.8295 195.685 90.688C195.221 90.4523 194.849 90.6409 194.477 91.3009L193.175 89.5566C193.5 89.0381 193.826 88.661 194.198 88.5195C194.57 88.3781 195.081 88.4724 195.685 88.8024C196.29 89.1324 196.848 89.6981 197.313 90.4995C197.778 91.3009 198.057 92.1494 198.103 93.0922C198.103 93.6108 198.057 94.0351 197.871 94.4122C197.685 94.7893 197.359 95.1664 196.894 95.6379L195.685 96.7692L198.475 98.3249L198.522 100.305L193.5 97.5706L193.454 95.9207L195.453 94.0822C195.871 93.7522 196.15 93.4222 196.336 93.1865Z" fill="white"/>
<path fill-rule="evenodd" clip-rule="evenodd" d="M200.382 100.069C200.893 101.248 201.637 102.143 202.614 102.662C203.59 103.18 204.334 103.133 204.799 102.473C205.264 101.813 205.45 100.729 205.403 99.1735C205.31 97.6178 205.031 96.2507 204.52 95.0722C204.009 93.8936 203.265 92.998 202.288 92.4794C201.312 91.9609 200.614 92.008 200.149 92.668C199.684 93.328 199.498 94.4122 199.545 95.9679C199.591 97.5235 199.87 98.8906 200.382 100.069ZM201.079 96.8164C201.033 95.8264 201.126 95.0722 201.312 94.6008C201.544 94.0822 201.87 93.9879 202.335 94.2708C202.8 94.5065 203.172 95.025 203.404 95.7322C203.637 96.4864 203.776 97.335 203.823 98.3249C203.869 99.3149 203.776 100.069 203.59 100.541C203.404 101.012 203.032 101.106 202.567 100.871C202.102 100.635 201.73 100.116 201.498 99.4092C201.265 98.6549 201.126 97.8064 201.079 96.8164Z" fill="white"/>
<path d="M206.101 94.7422L208.984 96.2978L209.309 106.197L207.775 105.349L207.496 97.335L206.147 96.5807L206.101 94.7422Z" fill="white"/>
<path fill-rule="evenodd" clip-rule="evenodd" d="M211.402 98.1835C211.867 97.9006 212.425 97.9949 213.122 98.372C213.819 98.7492 214.424 99.3149 214.889 100.116C215.354 100.871 215.633 101.672 215.633 102.426C215.679 103.18 215.447 103.699 215.075 104.029C215.679 104.972 216.005 105.962 216.051 106.999C216.098 107.847 215.865 108.46 215.4 108.79C214.935 109.12 214.284 109.073 213.447 108.602C212.657 108.177 211.96 107.517 211.448 106.622C210.937 105.773 210.658 104.878 210.611 104.029C210.565 102.992 210.844 102.332 211.402 102.002C210.937 101.201 210.704 100.446 210.704 99.692C210.751 98.9377 210.937 98.4192 211.402 98.1835ZM212.61 105.962C212.843 106.339 213.122 106.575 213.401 106.716C213.68 106.857 213.912 106.905 214.145 106.81C214.377 106.716 214.47 106.48 214.47 106.056C214.47 105.632 214.331 105.255 214.098 104.878C213.866 104.548 213.587 104.265 213.308 104.123C213.029 103.982 212.75 103.935 212.564 104.029C212.332 104.123 212.239 104.406 212.239 104.83C212.239 105.255 212.378 105.632 212.61 105.962ZM213.261 102.426C212.982 102.285 212.75 102.049 212.564 101.719C212.378 101.389 212.285 101.059 212.285 100.776C212.239 100.399 212.332 100.211 212.517 100.069C212.703 99.9748 212.889 99.9748 213.168 100.116C213.447 100.258 213.68 100.493 213.866 100.823C214.052 101.153 214.191 101.483 214.191 101.813C214.191 102.143 214.098 102.332 213.912 102.473C213.726 102.568 213.54 102.568 213.261 102.426Z" fill="white"/>
<path d="M234.332 110.782C234.518 110.547 234.564 110.217 234.564 109.887C234.564 109.557 234.471 109.227 234.285 108.944C234.099 108.614 233.913 108.425 233.681 108.284C233.216 108.048 232.844 108.237 232.472 108.897L231.17 107.153C231.496 106.634 231.821 106.257 232.193 106.115C232.565 105.974 233.076 106.068 233.681 106.398C234.285 106.728 234.843 107.294 235.308 108.095C235.773 108.897 236.052 109.745 236.099 110.688C236.099 111.207 236.052 111.631 235.866 112.008C235.68 112.385 235.355 112.762 234.89 113.234L233.681 114.365L236.471 115.921L236.517 117.901L231.496 115.167L231.449 113.517L233.448 111.678C233.867 111.348 234.146 111.018 234.332 110.782Z" fill="white"/>
<path fill-rule="evenodd" clip-rule="evenodd" d="M238.377 117.618C238.889 118.796 239.633 119.692 240.609 120.211C241.586 120.776 242.329 120.682 242.794 120.022C243.259 119.362 243.445 118.278 243.399 116.722C243.306 115.167 243.027 113.8 242.515 112.621C242.004 111.442 241.26 110.547 240.284 110.028C239.307 109.51 238.61 109.557 238.145 110.217C237.68 110.877 237.494 111.961 237.54 113.517C237.587 115.072 237.866 116.439 238.377 117.618ZM239.075 114.365C239.028 113.375 239.121 112.621 239.307 112.15C239.493 111.678 239.865 111.584 240.33 111.82C240.795 112.055 241.167 112.574 241.4 113.281C241.632 114.035 241.772 114.884 241.818 115.874C241.865 116.864 241.772 117.618 241.586 118.089C241.4 118.561 241.028 118.655 240.563 118.419C240.098 118.184 239.726 117.665 239.493 116.958C239.261 116.204 239.121 115.355 239.075 114.365Z" fill="white"/>
<path d="M244.096 112.291L246.979 113.847L247.305 123.746L245.77 122.898L245.491 114.884L244.143 114.129L244.096 112.291Z" fill="white"/>
<path fill-rule="evenodd" clip-rule="evenodd" d="M251.954 123.935C251.722 124.218 251.396 124.218 250.931 123.982C250.745 123.888 250.513 123.699 250.281 123.463C250.048 123.181 249.909 122.992 249.816 122.851C249.723 122.709 249.676 122.615 249.63 122.521L248.886 123.652C248.96 123.758 249.03 123.854 249.095 123.943C249.233 124.133 249.349 124.293 249.444 124.453C249.583 124.689 249.816 124.972 250.141 125.255C250.467 125.538 250.792 125.773 251.117 125.962C251.954 126.386 252.605 126.339 253.117 125.868C253.396 125.632 253.582 125.208 253.721 124.595C253.861 123.982 253.907 123.228 253.861 122.332C253.814 120.965 253.582 119.645 253.163 118.514C252.931 117.901 252.605 117.382 252.233 116.911C251.861 116.439 251.443 116.062 250.931 115.779C250.234 115.402 249.63 115.402 249.165 115.732C248.7 116.109 248.467 116.769 248.514 117.759C248.56 118.749 248.793 119.692 249.258 120.541C249.723 121.389 250.281 122.002 250.931 122.379C251.443 122.662 251.908 122.709 252.326 122.521C252.326 123.181 252.187 123.652 251.954 123.935ZM251.815 120.588C251.582 120.729 251.35 120.729 251.024 120.541C250.699 120.399 250.467 120.116 250.281 119.692C250.095 119.315 249.955 118.938 249.955 118.514C249.909 118.136 250.002 117.854 250.188 117.665C250.374 117.477 250.652 117.477 250.931 117.665C251.257 117.806 251.536 118.089 251.722 118.514C251.954 118.891 252.094 119.315 252.094 119.739C252.094 120.164 252.001 120.446 251.815 120.588Z" fill="white"/>
<path d="M279.525 95.8712C279.713 95.6355 279.76 95.3055 279.76 94.9756C279.76 94.6456 279.666 94.3156 279.478 94.0327C279.29 93.7027 279.102 93.5142 278.867 93.3728C278.397 93.1371 278.021 93.3256 277.645 93.9856L276.329 92.2414C276.658 91.7228 276.987 91.3457 277.363 91.2043C277.739 91.0628 278.256 91.1571 278.867 91.4871C279.478 91.8171 280.042 92.3828 280.512 93.1842C280.982 93.9856 281.264 94.8341 281.311 95.777C281.311 96.2955 281.264 96.7198 281.076 97.0969C280.888 97.474 280.559 97.8512 280.089 98.3226L278.867 99.454L281.687 101.01L281.734 102.99L276.658 100.255L276.611 98.6054L278.632 96.7669C279.102 96.4369 279.384 96.1069 279.525 95.8712Z" fill="white"/>
<path fill-rule="evenodd" clip-rule="evenodd" d="M283.661 102.707C284.178 103.885 284.93 104.781 285.917 105.299C286.905 105.865 287.61 105.771 288.127 105.111C288.597 104.451 288.785 103.367 288.738 101.811C288.644 100.255 288.362 98.8883 287.845 97.7097C287.328 96.5312 286.576 95.6355 285.588 95.117C284.601 94.5984 283.896 94.6456 283.426 95.3055C282.956 95.9655 282.768 97.0498 282.815 98.6054C282.862 100.161 283.144 101.528 283.661 102.707ZM284.319 99.454C284.272 98.464 284.366 97.7097 284.554 97.2383C284.789 96.7669 285.118 96.6726 285.588 96.9083C286.058 97.1441 286.435 97.6626 286.67 98.3697C286.905 99.124 287.046 99.9725 287.093 100.962C287.14 101.952 287.046 102.707 286.858 103.178C286.67 103.65 286.293 103.744 285.823 103.508C285.353 103.272 284.977 102.754 284.742 102.047C284.507 101.292 284.366 100.444 284.319 99.454Z" fill="white"/>
<path d="M292.827 103.037C293.015 102.801 293.062 102.471 293.062 102.141C293.062 101.811 292.968 101.481 292.78 101.198C292.592 100.868 292.404 100.68 292.169 100.538C291.699 100.303 291.323 100.491 290.947 101.151L289.631 99.4068C289.96 98.8883 290.289 98.5112 290.665 98.3697C291.041 98.2283 291.558 98.3226 292.169 98.6526C292.78 98.9826 293.344 99.5483 293.814 100.35C294.284 101.151 294.566 102 294.613 102.942C294.613 103.461 294.566 103.885 294.378 104.262C294.19 104.64 293.861 105.017 293.391 105.488L292.169 106.619L294.989 108.175L295.036 110.155L289.96 107.421L289.913 105.771L291.934 103.932C292.357 103.602 292.639 103.272 292.827 103.037Z" fill="white"/>
<path fill-rule="evenodd" clip-rule="evenodd" d="M296.869 109.872C297.433 111.051 298.185 111.946 299.172 112.465C300.206 113.031 300.911 112.936 301.287 112.276C301.757 111.616 301.945 110.532 301.898 108.976C301.851 107.421 301.569 106.054 301.052 104.875C300.535 103.697 299.783 102.801 298.796 102.282C297.809 101.764 297.104 101.811 296.634 102.471C296.164 103.131 295.976 104.215 296.023 105.771C296.07 107.327 296.352 108.694 296.869 109.872ZM297.621 106.619C297.574 105.629 297.668 104.875 297.856 104.404C298.091 103.932 298.42 103.838 298.89 104.074C299.36 104.31 299.736 104.828 299.971 105.535C300.206 106.289 300.347 107.138 300.394 108.128C300.441 109.118 300.347 109.872 300.159 110.344C299.924 110.815 299.595 110.909 299.125 110.674C298.655 110.438 298.279 109.919 298.044 109.212C297.809 108.458 297.668 107.609 297.621 106.619Z" fill="white"/>
<path d="M322.032 166.344C322.218 166.108 322.264 165.778 322.264 165.448C322.264 165.118 322.171 164.788 321.985 164.505C321.799 164.223 321.613 163.987 321.381 163.845C320.916 163.61 320.544 163.798 320.172 164.458L318.87 162.714C319.196 162.196 319.521 161.818 319.893 161.677C320.265 161.536 320.776 161.63 321.381 161.96C321.985 162.29 322.543 162.855 323.008 163.657C323.473 164.458 323.752 165.307 323.799 166.25C323.799 166.768 323.752 167.192 323.566 167.57C323.38 167.947 323.055 168.324 322.59 168.795L321.381 169.927L324.171 171.435L324.217 173.415L319.196 170.681L319.149 169.031L321.148 167.192C321.567 166.91 321.846 166.58 322.032 166.344Z" fill="white"/>
<path fill-rule="evenodd" clip-rule="evenodd" d="M326.077 173.227C326.589 174.405 327.333 175.301 328.309 175.819C329.285 176.338 330.029 176.291 330.494 175.631C330.959 174.971 331.145 173.887 331.099 172.331C331.006 170.775 330.727 169.408 330.215 168.23C329.704 167.051 328.96 166.155 327.984 165.637C327.007 165.118 326.31 165.165 325.845 165.825C325.38 166.485 325.194 167.57 325.24 169.125C325.287 170.681 325.566 172.048 326.077 173.227ZM326.775 169.974C326.728 168.984 326.821 168.23 327.007 167.758C327.24 167.24 327.565 167.145 328.03 167.428C328.495 167.664 328.867 168.182 329.099 168.89C329.332 169.597 329.471 170.445 329.518 171.435C329.564 172.425 329.471 173.179 329.285 173.651C329.099 174.122 328.728 174.217 328.263 173.981C327.798 173.745 327.426 173.227 327.193 172.519C326.961 171.812 326.821 170.964 326.775 169.974Z" fill="white"/>
<path d="M335.191 173.509C335.377 173.274 335.423 172.944 335.423 172.614C335.423 172.284 335.33 171.954 335.144 171.671C334.958 171.388 334.772 171.152 334.54 171.011C334.075 170.775 333.703 170.964 333.331 171.624L332.029 169.88C332.354 169.361 332.68 168.984 333.052 168.842C333.424 168.701 333.935 168.795 334.54 169.125C335.144 169.455 335.702 170.021 336.167 170.822C336.632 171.624 336.911 172.472 336.958 173.415C336.958 173.934 336.911 174.358 336.725 174.735C336.539 175.112 336.214 175.536 335.749 175.961L334.54 177.092L337.33 178.601L337.376 180.581L332.354 177.846L332.308 176.196L334.307 174.358C334.726 174.075 335.005 173.792 335.191 173.509Z" fill="white"/>
<path d="M337.934 171.247L340.817 172.802L341.142 182.702L339.608 181.853L339.329 173.839L337.98 173.085L337.934 171.247Z" fill="white"/>
<path d="M276.2 312.254C276.2 316.705 273.126 318.508 269.328 316.227L189.364 268.034C185.603 265.753 182.456 260.271 182.42 255.783L181.697 188.717C181.661 184.266 184.698 182.463 188.496 184.707L269.328 232.974C273.09 235.218 276.2 240.736 276.2 245.188V312.254Z" fill="#3C5186"/>
<path d="M276.2 311.621V264.64C275.909 263.787 275.508 262.972 274.889 262.268C273.069 260.193 270.011 259.712 267.318 260.267C264.66 260.823 262.221 262.231 259.818 263.491C256.324 265.306 252.647 266.9 248.752 267.27C244.857 267.641 240.707 266.677 237.867 263.936C234.955 261.157 233.499 256.673 229.822 255.117C226.546 253.746 222.869 255.265 219.483 256.34C212.021 258.711 202.956 258.526 197.496 252.82C194.292 249.485 192.326 244.372 187.885 243.261C187.63 243.187 187.339 243.15 187.084 243.112C185.227 242.89 183.371 243.446 181.696 244.409L181.806 255.377C181.842 259.86 185.009 265.418 188.795 267.715L195.603 271.828C200.153 274.421 204.667 277.126 209.145 279.868C221.813 287.538 234.482 295.244 247.15 302.914L269.247 316.253C270.193 316.808 271.104 317.142 271.904 317.216C272.196 317.216 272.523 317.216 272.814 317.142C274.671 316.623 275.472 314.474 275.945 312.585C276.091 312.251 276.127 311.955 276.2 311.621Z" fill="url(#paint8_linear_2_5191)"/>
<path d="M273.757 313.903V246.865C273.757 242.41 270.622 236.888 266.83 234.642L185.342 186.342C183.993 185.532 182.754 185.275 181.696 185.422C182.827 183.544 185.124 183.14 187.785 184.723L269.273 233.022C273.064 235.268 276.2 240.79 276.2 245.245V312.32C276.2 315.191 274.924 316.922 272.992 317.216C273.466 316.369 273.757 315.265 273.757 313.903Z" fill="url(#paint9_linear_2_5191)"/>
<path d="M70.3302 194.032C68.7888 194.032 67.3357 193.055 66.711 191.43L59.5879 172.862C56.5526 164.955 58.0261 155.736 63.3498 149.367L69.624 141.854C71.0636 140.126 73.542 139.981 75.1513 141.533C76.7607 143.078 76.8965 145.738 75.4501 147.465L69.1759 154.978C65.8486 158.957 64.9251 164.729 66.8264 169.67L73.9495 188.238C74.7711 190.381 73.8204 192.837 71.8241 193.719C71.3352 193.93 70.8327 194.032 70.3302 194.032Z" fill="url(#paint10_linear_2_5191)"/>
<path d="M69.9308 264.858L66.0962 267.665L54.7747 272.241C53.9144 272.584 53.3531 273.425 53.3531 274.346L53.1052 276.963C52.9448 278.695 54.4393 280.113 56.1525 279.857L72.7156 277.387L74.3486 276.086L75.7483 275.852L77.148 277.387H78.7154C80.1661 277.387 81.3471 276.203 81.3471 274.748V271.123L78.781 264.858H69.9308Z" fill="#3C5186"/>
<path d="M73.496 273.085C70.0285 273.085 68.5644 270.19 68.5644 266.615L67.2195 234.013L67.0724 186.904C66.8342 183.336 69.9514 179.726 73.4119 179.488C76.8864 179.257 81.7409 182.91 81.9791 186.478L79.7865 233.803L78.8899 266.63C78.8759 270.182 76.9635 273.085 73.496 273.085Z" fill="#4A66A4"/>
<path d="M125.757 162.299L125.707 162.305C125.135 162.347 124.643 161.872 124.606 161.24L124.158 153.809C124.121 153.177 124.55 152.634 125.122 152.593L125.172 152.586C125.744 152.545 126.236 153.019 126.273 153.651L126.721 161.082C126.765 161.714 126.329 162.257 125.757 162.299Z" fill="#F3B3B6"/>
<path d="M116.226 171.011C111.482 171.011 107.053 169.087 103.741 165.586L93.3265 154.57C91.8527 153.015 91.8878 150.52 93.3966 149.001C94.9055 147.482 97.3266 147.511 98.8004 149.073L109.215 160.089C111.074 162.056 113.566 163.141 116.233 163.141C116.24 163.141 116.247 163.141 116.254 163.141C118.927 163.134 121.419 162.042 123.278 160.067L127.658 155.525C129.145 153.984 131.559 153.977 133.061 155.51C134.556 157.044 134.563 159.532 133.075 161.08L128.731 165.586C125.461 169.065 121.026 171.011 116.275 171.026C116.247 171.011 116.233 171.011 116.226 171.011Z" fill="#F3B3B6"/>
<path d="M126.522 159.485L126.469 159.457C125.873 159.12 125.692 158.405 126.054 157.851L130.338 151.372C130.7 150.825 131.477 150.65 132.065 150.987L132.118 151.015C132.707 151.351 132.895 152.073 132.533 152.62L128.256 159.092C127.887 159.646 127.118 159.821 126.522 159.485Z" fill="#F3B3B6"/>
<path d="M128.926 159.408L128.885 159.371C128.384 158.958 128.288 158.19 128.672 157.651L133.192 151.297C133.576 150.759 134.296 150.655 134.797 151.069L134.838 151.106C135.338 151.519 135.434 152.294 135.05 152.832L130.538 159.179C130.147 159.71 129.433 159.814 128.926 159.408Z" fill="#F3B3B6"/>
<path d="M130.518 161.301L129.379 159.921C129.254 159.769 129.268 159.542 129.399 159.405L136.16 152.678C136.298 152.541 136.505 152.556 136.629 152.7L137.769 154.081C137.893 154.233 137.879 154.46 137.748 154.597L130.994 161.324C130.849 161.468 130.642 161.453 130.518 161.301Z" fill="#F3B3B6"/>
<path d="M129.46 161.694L129.434 161.644C129.134 161.074 129.327 160.347 129.867 160.026L136.175 156.271C136.708 155.95 137.387 156.157 137.687 156.734L137.713 156.784C138.013 157.354 137.82 158.081 137.28 158.401L130.973 162.157C130.433 162.478 129.754 162.271 129.46 161.694Z" fill="#F3B3B6"/>
<path d="M91.0155 285.735L86.4841 301.348C86.6096 303.157 87.8296 304.68 89.5097 305.113L90.6669 305.405C91.7545 305.684 92.9047 305.471 93.8319 304.812C96.6623 302.813 98.5237 299.62 98.942 296.061L100.183 285.427L98.433 281.655L91.0155 285.735Z" fill="#3C5186"/>
<path d="M96.2364 288.699C99.6894 288.36 101.321 285.207 100.999 281.649L98.0924 240.377L97.7212 193.938C97.4691 190.374 91.0254 180.612 87.5654 180.878C84.1054 181.138 68.2553 181.542 68.5075 185.107L77.6337 201.298L85.5693 241.387L90.29 282.869C90.5981 286.217 92.4332 288.728 95.634 288.728C95.8302 288.728 96.0333 288.713 96.2364 288.699Z" fill="url(#paint11_linear_2_5191)"/>
<path d="M128.049 160.44C126.43 158.82 123.856 158.864 122.286 160.535C120.461 162.492 118 163.577 115.369 163.577C115.362 163.577 115.355 163.577 115.348 163.577C112.724 163.577 110.27 162.507 108.439 160.557L99.2806 150.823C98.1915 148.382 96.4943 146.235 94.2242 144.688C93.9696 144.512 93.7079 144.344 93.4392 144.182L81.3038 137.146C74.8542 133.283 66.7922 138.113 66.7922 145.832L66.7992 188.873C71.3889 195.778 81.8412 200.857 97.6328 197.485L98.6512 181.279L99.8534 163.541L102.611 166.473C105.992 170.064 110.511 172.043 115.355 172.043C115.369 172.043 115.376 172.043 115.39 172.043C120.242 172.036 124.775 170.042 128.148 166.429C129.711 164.735 129.669 162.06 128.049 160.44Z" fill="url(#paint12_linear_2_5191)"/>
<path d="M82.2032 147.595L76.2556 151.699L76.2112 148.531C76.1889 147.04 76.5 145.563 77.1222 144.197L79.3368 139.323L81.0033 139.544L82.2032 147.595Z" fill="white"/>
<path d="M81.6547 147.279L84.7718 151.699L82.0536 156.12L79.0989 155.022L77.9224 150.077L81.6547 147.279Z" fill="url(#paint13_linear_2_5191)"/>
<path d="M86.3804 148.163H81.4581C80.924 148.163 80.4909 147.737 80.4909 147.211V133.134H87.3403V147.218C87.3403 147.737 86.9072 148.163 86.3804 148.163Z" fill="#F3B3B6"/>
<path d="M85.4326 141.975H82.5539C75.093 141.975 71.9292 135.517 71.9292 127.543V124.325C71.9292 121.865 73.7927 119.873 76.0943 119.873H83.1519C86.1002 119.873 88.4921 122.43 88.4921 125.581L91.6211 137.858C91.6281 139.671 87.1293 141.975 85.4326 141.975Z" fill="#F3B3B6"/>
<path d="M96.2343 126.547C95.5429 122.253 92.6513 118.408 88.7888 116.542C86.9868 115.673 85.0101 115.217 83.0405 114.925C79.8905 114.462 76.5518 114.412 73.6463 115.744C70.3007 117.275 68.7291 120.28 72.3402 122.787C73.8139 123.806 75.6369 124.162 77.4109 124.261C79.3806 124.368 81.6017 124.276 83.0126 125.679C84.8914 127.544 84.1371 130.828 85.2965 133.227C85.5829 133.227 85.8762 133.22 86.1626 133.22C86.4979 132.558 86.2883 131.76 86.3582 131.02C86.428 130.279 87.1195 129.453 87.7621 129.795C88.1322 129.994 88.251 130.464 88.3069 130.877C88.5164 132.394 88.4396 133.947 88.0624 135.428C87.7202 136.788 87.2731 138.547 88.4186 139.331C90.3813 140.677 93.6221 136.938 94.4882 135.485C96.0737 132.843 96.7233 129.61 96.2343 126.547Z" fill="#3C5186"/>
<path d="M81.3471 147.276L85.859 153.467L86.2698 149.696C86.5204 147.345 87.4186 145.111 88.8529 143.228C89.2289 142.739 89.0549 142.035 88.4909 141.766L87.0705 141.091L81.3471 147.276Z" fill="white"/>
<path d="M98.4705 193.515C82.6777 196.734 72.2363 191.885 67.6483 185.293V188.428C72.2363 195.019 82.6848 199.869 98.4705 196.65V193.515Z" fill="#3C5186"/>
<path d="M83.0594 157.219L82.149 191.46L78.8799 194.134L77.0662 190.594L79.9266 156.12L83.0594 157.219Z" fill="url(#paint14_linear_2_5191)"/>
<path d="M355.439 293.559L356.232 292.917C357.602 291.8 359.491 291.665 360.999 292.572L412.106 323.338C413.201 323.994 414.558 323.994 415.653 323.345L426.171 317.133C427.614 316.281 429.384 316.287 430.827 317.14L452.275 329.921C454.564 331.288 456.439 334.631 456.439 337.358L430.761 428.181C430.65 429.108 430.072 431.111 428.65 431.165L419.968 432.045L332.823 376.893C330.534 375.533 328.659 372.19 328.659 369.464L354.337 295.901C354.337 294.987 354.737 294.121 355.439 293.559Z" fill="url(#paint15_linear_2_5191)"/>
<path d="M346.76 296.797C346.76 294.07 348.646 292.954 350.947 294.32L402.428 324.823C403.529 325.479 404.894 325.479 405.995 324.829L416.571 318.618C418.021 317.766 419.801 317.772 421.252 318.625L442.819 331.406C445.12 332.773 447.006 336.116 447.006 338.842L421.186 428.982C421.186 431.709 419.3 432.825 416.999 431.465L325.128 377.173C322.826 375.813 320.941 372.471 320.941 369.744L346.76 296.797Z" fill="url(#paint16_linear_2_5191)"/>
<path d="M345.22 229.184C342.717 227.69 340.665 228.914 340.665 231.895V369.499C340.665 372.481 342.717 376.138 345.22 377.632L429.593 427.884C432.097 429.378 434.142 428.154 434.142 425.173V287.568C434.142 284.587 432.09 280.93 429.593 279.435L345.22 229.184Z" fill="#F6F9FD"/>
<path d="M429.593 279.429L345.22 229.184C342.717 227.69 340.665 228.914 340.665 231.895V232.916L424.887 283.073C427.391 284.567 429.442 288.224 429.442 291.206V427.796L429.593 427.884C432.097 429.378 434.142 428.154 434.142 425.173V287.562C434.148 284.58 432.097 280.916 429.593 279.429Z" fill="url(#paint17_linear_2_5191)"/>
<path d="M333.207 210.685C330.704 209.19 328.659 210.414 328.659 213.396V351.004C328.659 353.986 330.71 357.643 333.207 359.138L417.581 409.384C420.084 410.878 422.136 409.654 422.136 406.673V269.064C422.136 266.082 420.084 262.425 417.581 260.931L333.207 210.685Z" fill="#F6F9FD"/>
<path d="M417.579 260.933L333.176 210.679C330.783 209.253 328.829 210.328 328.659 213.019C328.875 213.107 329.092 213.195 329.315 213.33L413.717 263.584C416.222 265.078 418.274 268.736 418.274 271.718V409.348C418.274 409.483 418.248 409.591 418.241 409.719C420.431 410.639 422.136 409.408 422.136 406.697V269.067C422.129 266.085 420.083 262.427 417.579 260.933Z" fill="url(#paint18_linear_2_5191)"/>
<path d="M412.643 285.318L334.78 238.569L334.793 235.183L412.643 281.877V285.318Z" fill="#D1E1F2"/>
<path d="M412.643 297.808L334.78 251.059L334.793 247.673L412.643 294.367V297.808Z" fill="#D1E1F2"/>
<path d="M412.643 310.298L334.78 263.735L334.793 260.363L412.643 306.871V310.298Z" fill="#D1E1F2"/>
<path d="M412.643 322.787L334.78 276.224L334.793 272.852L412.643 319.361V322.787Z" fill="#D1E1F2"/>
<path d="M412.643 334.596L334.78 287.848L334.793 284.462L412.643 331.156V334.596Z" fill="#D1E1F2"/>
<path d="M315.887 296.902C318.101 296.04 320.572 296.251 322.616 297.485L373.283 328.02C374.384 328.678 377.165 324.595 378.272 323.944L386.339 321.468C388.527 320.797 390.886 321.082 392.863 322.255L413.663 334.613C415.963 335.976 417.848 339.334 417.848 342.067V432.777C417.848 435.504 415.95 437.844 413.346 438.339L404.667 439.973L319.419 383.475C317.119 382.111 315.234 378.761 315.234 376.027L308.077 299.947L315.887 296.902Z" fill="url(#paint19_linear_2_5191)"/>
<path d="M307.219 302.963C307.219 300.237 309.107 299.12 311.41 300.487L362.938 330.988C364.04 331.645 365.406 331.645 366.508 330.995L377.094 324.784C378.546 323.931 380.328 323.938 381.779 324.791L403.366 337.572C405.669 338.932 407.557 342.281 407.557 345.008V436.911C407.557 439.637 405.669 440.754 403.366 439.394L311.41 385.103C309.107 383.743 307.219 380.401 307.219 377.674V302.963Z" fill="url(#paint20_linear_2_5191)"/>
<path opacity="0.3" d="M358.03 244.035L328.659 226.785V288.145L354.983 303.742C355.806 304.23 356.773 304.413 357.707 304.25L357.839 304.23C359.806 303.898 361.247 302.144 361.247 300.098V249.744C361.247 247.645 359.8 245.078 358.03 244.035Z" fill="#2E3D64"/>
<path d="M286.825 213.195L286.569 213.554C286.084 214.233 285.828 215.054 285.828 215.903V265.644C285.828 267.748 287.27 270.327 289.027 271.379L350.273 307.879C351.093 308.368 352.056 308.551 352.987 308.388L353.118 308.368C355.071 308.035 356.507 306.278 356.507 304.228V253.774C356.507 251.67 355.065 249.098 353.302 248.052L292.265 212C290.423 210.901 288.083 211.416 286.825 213.195Z" fill="url(#paint21_linear_2_5191)"/>
<path d="M289.033 213.643C287.27 212.597 285.828 213.466 285.828 215.57V265.38C285.828 267.483 287.27 270.063 289.027 271.115L350.359 307.778C352.115 308.83 353.557 307.968 353.557 305.864V255.667C353.557 253.563 352.115 250.991 350.352 249.946L289.033 213.643Z" fill="url(#paint22_linear_2_5191)"/>
<path d="M340.33 260.717L325.215 272.261L318.955 259.936L303.932 266.479L285.822 256.299V265.38C285.822 267.483 287.264 270.063 289.02 271.114L350.352 307.778C352.109 308.83 353.551 307.968 353.551 305.864V297.787V259.82L340.33 260.717Z" fill="url(#paint23_linear_2_5191)"/>
<defs>
<linearGradient id="paint0_linear_2_5191" x1="187.894" y1="488.304" x2="4.76061" y2="488.304" gradientUnits="userSpaceOnUse">
<stop stop-color="#F49719"/>
<stop offset="1" stop-color="#FCC00E"/>
</linearGradient>
<linearGradient id="paint1_linear_2_5191" x1="159.222" y1="438.423" x2="161.415" y2="428.566" gradientUnits="userSpaceOnUse">
<stop stop-color="#F49719"/>
<stop offset="1" stop-color="#FCC00E"/>
</linearGradient>
<linearGradient id="paint2_linear_2_5191" x1="473.82" y1="221.027" x2="304.982" y2="14.9353" gradientUnits="userSpaceOnUse">
<stop offset="0.00380205" stop-color="#3C5186"/>
<stop offset="1" stop-color="#5D7DBE"/>
</linearGradient>
<linearGradient id="paint3_linear_2_5191" x1="383.817" y1="130.791" x2="157.553" y2="130.791" gradientUnits="userSpaceOnUse">
<stop offset="0.1499" stop-color="#F49719"/>
<stop offset="1" stop-color="#FCC00E"/>
</linearGradient>
<linearGradient id="paint4_linear_2_5191" x1="506.269" y1="168.068" x2="429.669" y2="104.841" gradientUnits="userSpaceOnUse">
<stop offset="0.1499" stop-color="#F49719"/>
<stop offset="1" stop-color="#FCC00E"/>
</linearGradient>
<linearGradient id="paint5_linear_2_5191" x1="495.774" y1="34.3912" x2="324.294" y2="34.3912" gradientUnits="userSpaceOnUse">
<stop offset="0.00380205" stop-color="#3C5186"/>
<stop offset="1" stop-color="#5D7DBE"/>
</linearGradient>
<linearGradient id="paint6_linear_2_5191" x1="405.137" y1="382.013" x2="525.836" y2="382.013" gradientUnits="userSpaceOnUse">
<stop offset="0.1499" stop-color="#F49719"/>
<stop offset="1" stop-color="#FCC00E"/>
</linearGradient>
<linearGradient id="paint7_linear_2_5191" x1="405.342" y1="381.93" x2="525.836" y2="381.93" gradientUnits="userSpaceOnUse">
<stop stop-color="#5D7DBE"/>
<stop offset="0.9962" stop-color="#3C5186"/>
</linearGradient>
<linearGradient id="paint8_linear_2_5191" x1="195.859" y1="311.656" x2="276.191" y2="311.656" gradientUnits="userSpaceOnUse">
<stop stop-color="#DAE7F5"/>
<stop offset="1" stop-color="#92A7BE"/>
</linearGradient>
<linearGradient id="paint9_linear_2_5191" x1="181.673" y1="317.186" x2="276.154" y2="317.186" gradientUnits="userSpaceOnUse">
<stop stop-color="#5D7DBE"/>
<stop offset="0.9962" stop-color="#3C5186"/>
</linearGradient>
<linearGradient id="paint10_linear_2_5191" x1="58.0303" y1="140.469" x2="76.448" y2="140.469" gradientUnits="userSpaceOnUse">
<stop stop-color="#A9D7F5"/>
<stop offset="1" stop-color="white"/>
</linearGradient>
<linearGradient id="paint11_linear_2_5191" x1="68.4991" y1="138.961" x2="126.317" y2="138.961" gradientUnits="userSpaceOnUse">
<stop stop-color="#3C5186"/>
<stop offset="0.3931" stop-color="#4C67A1"/>
<stop offset="0.7545" stop-color="#5877B6"/>
<stop offset="1" stop-color="#5D7DBE"/>
</linearGradient>
<linearGradient id="paint12_linear_2_5191" x1="66.7938" y1="135.786" x2="129.29" y2="135.786" gradientUnits="userSpaceOnUse">
<stop stop-color="#A9D7F5"/>
<stop offset="0.0777" stop-color="#BDE0F8"/>
<stop offset="0.2141" stop-color="#D6EBFB"/>
<stop offset="0.3623" stop-color="#E9F4FD"/>
<stop offset="0.5259" stop-color="#F6FAFE"/>
<stop offset="0.7166" stop-color="#FDFEFF"/>
<stop offset="1" stop-color="white"/>
</linearGradient>
<linearGradient id="paint13_linear_2_5191" x1="84.7705" y1="156.118" x2="77.9214" y2="156.118" gradientUnits="userSpaceOnUse">
<stop offset="0.1499" stop-color="#F49719"/>
<stop offset="1" stop-color="#FCC00E"/>
</linearGradient>
<linearGradient id="paint14_linear_2_5191" x1="83.0601" y1="194.135" x2="77.0674" y2="194.135" gradientUnits="userSpaceOnUse">
<stop offset="0.1499" stop-color="#F49719"/>
<stop offset="1" stop-color="#FCC00E"/>
</linearGradient>
<linearGradient id="paint15_linear_2_5191" x1="328.653" y1="291.974" x2="456.435" y2="291.974" gradientUnits="userSpaceOnUse">
<stop stop-color="#FCC00E"/>
<stop offset="0.8501" stop-color="#F49719"/>
</linearGradient>
<linearGradient id="paint16_linear_2_5191" x1="320.939" y1="293.732" x2="447.009" y2="293.732" gradientUnits="userSpaceOnUse">
<stop offset="0.1499" stop-color="#F49719"/>
<stop offset="1" stop-color="#FCC00E"/>
</linearGradient>
<linearGradient id="paint17_linear_2_5191" x1="340.669" y1="228.54" x2="434.147" y2="228.54" gradientUnits="userSpaceOnUse">
<stop stop-color="#F5FAFE"/>
<stop offset="0.2091" stop-color="#E5F1FA"/>
<stop offset="0.822" stop-color="#B6D3F0"/>
<stop offset="0.9962" stop-color="#A6CBED"/>
</linearGradient>
<linearGradient id="paint18_linear_2_5191" x1="328.652" y1="210.047" x2="422.13" y2="210.047" gradientUnits="userSpaceOnUse">
<stop stop-color="#F5FAFE"/>
<stop offset="0.2091" stop-color="#E5F1FA"/>
<stop offset="0.822" stop-color="#B6D3F0"/>
<stop offset="0.9962" stop-color="#A6CBED"/>
</linearGradient>
<linearGradient id="paint19_linear_2_5191" x1="308.065" y1="296.375" x2="417.845" y2="296.375" gradientUnits="userSpaceOnUse">
<stop stop-color="#FCC00E"/>
<stop offset="0.8501" stop-color="#F49719"/>
</linearGradient>
<linearGradient id="paint20_linear_2_5191" x1="307.219" y1="299.902" x2="407.559" y2="299.902" gradientUnits="userSpaceOnUse">
<stop offset="0.1499" stop-color="#F49719"/>
<stop offset="1" stop-color="#FCC00E"/>
</linearGradient>
<linearGradient id="paint21_linear_2_5191" x1="285.827" y1="211.42" x2="356.51" y2="211.42" gradientUnits="userSpaceOnUse">
<stop stop-color="#F5FAFE"/>
<stop offset="0.2091" stop-color="#E5F1FA"/>
<stop offset="0.822" stop-color="#B6D3F0"/>
<stop offset="0.9962" stop-color="#A6CBED"/>
</linearGradient>
<linearGradient id="paint22_linear_2_5191" x1="318.428" y1="355.29" x2="229.058" y2="289.585" gradientUnits="userSpaceOnUse">
<stop stop-color="#A9D7F5"/>
<stop offset="0.3297" stop-color="#CDE7FA"/>
<stop offset="0.7734" stop-color="#F2F9FE"/>
<stop offset="1" stop-color="white"/>
</linearGradient>
<linearGradient id="paint23_linear_2_5191" x1="285.827" y1="256.303" x2="353.556" y2="256.303" gradientUnits="userSpaceOnUse">
<stop stop-color="#3C5186"/>
<stop offset="0.116" stop-color="#40578D"/>
<stop offset="0.6906" stop-color="#5472B0"/>
<stop offset="1" stop-color="#5D7DBE"/>
</linearGradient>
</defs>
</svg>
