<svg width="449" height="425" viewBox="0 0 449 425" fill="none" xmlns="http://www.w3.org/2000/svg">
<path d="M261.67 410.27H259.644C258.813 409.383 257.73 408.556 256.389 407.816C249.346 403.936 237.826 403.936 230.791 407.816C229.449 408.556 228.367 409.383 227.535 410.27H225.509V414.836C225.495 417.403 227.249 419.976 230.791 421.923C237.833 425.803 249.353 425.803 256.389 421.923C259.924 419.976 261.684 417.403 261.67 414.836V410.27Z" fill="url(#paint0_linear_2_4363)"/>
<path d="M230.791 403.216C237.833 399.336 249.353 399.336 256.389 403.216C263.431 407.096 263.431 413.443 256.389 417.323C249.346 421.203 237.826 421.203 230.791 417.323C223.749 413.443 223.749 407.096 230.791 403.216Z" fill="url(#paint1_linear_2_4363)"/>
<path fill-rule="evenodd" clip-rule="evenodd" d="M248.012 406.923C250.709 408.31 252.42 410.043 252.707 411.676C252.861 412.55 252.602 413.37 251.952 414.056C251.114 414.923 249.856 415.396 248.403 415.396C247.23 415.396 245.979 415.083 244.889 414.523C244.449 414.296 243.695 413.81 243.604 413.143C243.583 413.023 243.59 412.87 243.653 412.703C243.471 412.716 243.289 412.723 243.108 412.723C241.955 412.723 240.844 412.436 239.705 411.85C238.727 411.35 238.098 410.663 237.98 409.976C237.903 409.53 238.043 409.096 238.392 408.736C239.063 408.043 240.236 407.663 241.703 407.663C243.345 407.663 245.169 408.136 246.838 408.996C247.788 409.49 248.655 410.063 249.214 410.576L249.486 410.823L246.461 412.556C245.686 412.983 245.63 413.243 245.63 413.31C245.63 413.416 245.755 413.543 245.986 413.663C246.433 413.903 247.006 414.03 247.607 414.03C248.599 414.03 249.514 413.676 250.115 413.05C250.611 412.53 250.807 411.956 250.702 411.343C250.499 410.17 249.207 408.916 247.069 407.816C245.099 406.803 242.961 406.243 241.04 406.243C239.202 406.243 237.749 406.75 236.827 407.703C236.296 408.256 236.086 408.876 236.205 409.55C236.429 410.836 237.819 412.216 240.013 413.35C241.361 414.043 242.702 414.536 243.883 414.783L244.135 414.836L244.002 416.05L243.688 415.976C242.13 415.63 240.676 415.083 238.979 414.21C236.268 412.816 234.473 410.956 234.172 409.236C234.005 408.296 234.291 407.416 234.99 406.69C236.114 405.53 238.001 404.89 240.313 404.89C242.737 404.89 245.469 405.616 248.012 406.923ZM240.418 409.85C240.292 409.983 240.236 410.116 240.264 410.256C240.306 410.516 240.614 410.796 241.103 411.05C241.662 411.33 242.388 411.49 243.164 411.49C243.939 411.49 244.694 411.33 245.134 411.07L246.454 410.31C246.231 410.17 245.986 410.023 245.721 409.89C244.777 409.396 243.688 409.13 242.668 409.13C241.675 409.13 240.858 409.396 240.418 409.85Z" fill="white"/>
<path d="M108.067 196.81L182.51 173.48L373.023 290.193L314.851 318.845L108.067 196.81Z" fill="#DDDDDD"/>
<path d="M178.703 159.062L253.146 135.731L443.659 252.445L385.487 281.097L178.703 159.062Z" fill="#DDDDDD"/>
<path d="M212.699 4.08813L418.755 120.57L447.778 243.463C449.855 251.836 440.755 258.583 433.197 254.273L243.007 149.121L212.699 4.08813Z" fill="#D1E1F2"/>
<path d="M447.778 243.456L418.755 120.57L212.699 4.08813L213.464 7.18344L414.233 121.703L443.124 243.456C444.534 249.153 440.769 254.087 435.837 255.309C442.693 256.99 449.612 250.875 447.778 243.456Z" fill="url(#paint2_linear_2_4363)"/>
<path d="M418.755 120.57L428.21 161.413L424.111 163.774L414.233 121.703L418.755 120.57Z" fill="#4A66A4"/>
<path d="M424.111 163.774L387.586 143.116L385.752 105.465L414.233 121.703L424.111 163.774Z" fill="url(#paint3_linear_2_4363)"/>
<path d="M418.755 120.57L212.699 4.08813L208.045 4.095L414.233 121.703L418.755 120.57Z" fill="url(#paint4_linear_2_4363)"/>
<path d="M208.045 4.09497L414.233 121.71L383.14 280.154C381.445 288.781 371.658 293.194 363.954 288.801L184.51 186.444C177.918 182.682 174.466 175.202 175.91 167.817L208.045 4.09497Z" fill="white"/>
<path d="M217.395 83.7219L233.088 92.6715C234.908 93.7079 235.845 95.7874 235.408 97.8189L232.254 112.541C231.747 114.901 229.059 116.089 226.947 114.881L211.255 105.931C209.435 104.895 208.497 102.815 208.934 100.784L212.088 86.0623C212.588 83.7013 215.277 82.514 217.395 83.7219Z" fill="#DEEAF9"/>
<path d="M252.357 103.872L268.05 112.822C269.87 113.858 270.808 115.938 270.37 117.969L267.216 132.691C266.709 135.052 264.021 136.232 261.909 135.031L246.217 126.082C244.397 125.045 243.459 122.966 243.897 120.934L247.05 106.213C247.55 103.852 250.239 102.664 252.357 103.872Z" fill="#DEEAF9"/>
<path d="M287.313 124.023L303.005 132.972C304.825 134.009 305.763 136.088 305.325 138.12L302.171 152.841C301.664 155.202 298.976 156.39 296.864 155.182L281.172 146.232C279.352 145.196 278.414 143.116 278.852 141.085L282.005 126.363C282.512 124.002 285.201 122.815 287.313 124.023Z" fill="#DEEAF9"/>
<path d="M322.275 144.173L337.967 153.123C339.787 154.159 340.725 156.239 340.287 158.27L337.133 172.985C336.626 175.346 333.938 176.526 331.826 175.325L316.134 166.375C314.314 165.339 313.376 163.26 313.814 161.228L316.967 146.506C317.475 144.146 320.163 142.965 322.275 144.173Z" fill="#DEEAF9"/>
<path d="M357.237 164.317L372.929 173.266C374.749 174.303 375.687 176.382 375.249 178.414L372.095 193.135C371.588 195.496 368.9 196.683 366.788 195.476L351.096 186.526C349.276 185.49 348.338 183.41 348.776 181.379L351.929 166.657C352.43 164.296 355.125 163.116 357.237 164.317Z" fill="#DEEAF9"/>
<path d="M210.289 117.509L225.981 126.459C227.801 127.495 228.739 129.575 228.301 131.607L225.148 146.328C224.641 148.689 221.952 149.869 219.841 148.668L204.148 139.719C202.328 138.682 201.39 136.603 201.828 134.571L204.982 119.85C205.489 117.489 208.177 116.308 210.289 117.509Z" fill="#DEEAF9"/>
<path d="M245.251 137.66L260.943 146.61C262.763 147.646 263.701 149.725 263.263 151.757L260.11 166.479C259.603 168.839 256.914 170.027 254.803 168.819L239.11 159.869C237.29 158.833 236.352 156.753 236.79 154.722L239.944 140C240.444 137.639 243.139 136.452 245.251 137.66Z" fill="#DEEAF9"/>
<path d="M280.213 157.81L295.905 166.76C297.725 167.796 298.663 169.876 298.226 171.907L295.072 186.629C294.565 188.99 291.876 190.17 289.765 188.969L274.072 180.02C272.252 178.983 271.315 176.904 271.752 174.872L274.906 160.151C275.406 157.79 278.094 156.602 280.213 157.81Z" fill="#DEEAF9"/>
<path d="M315.175 177.961L330.868 186.91C332.688 187.947 333.625 190.026 333.188 192.058L330.034 206.779C329.527 209.14 326.838 210.327 324.727 209.12L309.034 200.17C307.214 199.134 306.277 197.054 306.714 195.022L309.868 180.301C310.368 177.94 313.057 176.753 315.175 177.961Z" fill="#DEEAF9"/>
<path d="M350.13 198.111L365.823 207.061C367.643 208.097 368.58 210.176 368.143 212.208L364.989 226.93C364.482 229.291 361.794 230.471 359.682 229.27L343.99 220.32C342.17 219.284 341.232 217.204 341.669 215.173L344.823 200.451C345.33 198.09 348.019 196.903 350.13 198.111Z" fill="#DEEAF9"/>
<path d="M203.19 151.304L218.882 160.254C220.702 161.29 221.64 163.369 221.202 165.401L218.048 180.123C217.541 182.483 214.853 183.671 212.741 182.463L197.049 173.513C195.229 172.477 194.291 170.397 194.729 168.366L197.882 153.644C198.383 151.283 201.071 150.096 203.19 151.304Z" fill="#DEEAF9"/>
<path d="M238.152 171.454L253.844 180.404C255.664 181.44 256.602 183.52 256.164 185.551L253.01 200.273C252.503 202.634 249.815 203.814 247.703 202.613L232.011 193.664C230.191 192.627 229.253 190.548 229.691 188.516L232.844 173.795C233.345 171.427 236.033 170.246 238.152 171.454Z" fill="#DEEAF9"/>
<path d="M273.107 191.598L288.799 200.547C290.619 201.584 291.557 203.663 291.119 205.695L287.965 220.416C287.458 222.777 284.77 223.965 282.658 222.757L266.966 213.807C265.146 212.771 264.208 210.691 264.646 208.66L267.8 193.938C268.307 191.577 270.995 190.397 273.107 191.598Z" fill="#DEEAF9"/>
<path d="M308.069 211.748L323.761 220.698C325.581 221.734 326.519 223.814 326.081 225.845L322.928 240.567C322.42 242.928 319.732 244.108 317.62 242.907L301.928 233.957C300.108 232.921 299.17 230.842 299.608 228.81L302.762 214.089C303.269 211.728 305.957 210.54 308.069 211.748Z" fill="#DEEAF9"/>
<path d="M343.031 231.899L358.723 240.848C360.543 241.885 361.481 243.964 361.043 245.996L357.89 260.717C357.383 263.078 354.694 264.265 352.582 263.058L336.89 254.108C335.07 253.072 334.132 250.992 334.57 248.96L337.724 234.239C338.224 231.878 340.919 230.691 343.031 231.899Z" fill="#DEEAF9"/>
<path d="M208.045 4.09497L207.58 6.48337L409.579 121.71L378.486 280.154C377.416 285.624 373.089 289.385 368.101 290.298C374.811 291.519 381.744 287.285 383.14 280.154L414.233 121.71L208.045 4.09497Z" fill="url(#paint5_linear_2_4363)"/>
<path d="M199.015 50.1196L401.028 165.257L414.233 121.71L208.045 4.09497L199.015 50.1196Z" fill="url(#paint6_linear_2_4363)"/>
<path d="M409.579 121.71L401.028 165.257L405.786 164.756L414.233 121.71H409.579Z" fill="#4A66A4"/>
<path d="M236.769 43.3388C233.81 43.3388 231.073 42.323 228.975 40.4219C227.016 38.6512 224.689 35.2882 224.689 29.3516C224.689 19.3313 231.566 7.56088 240.347 2.55761C245.321 -0.276898 250.454 -0.606332 254.421 1.65166C258.387 3.91652 260.665 8.46683 260.665 14.1427C260.665 18.8028 259.158 24.0532 256.414 28.9123L248.28 24.4375C250.232 20.9716 251.357 17.2174 251.357 14.1427C251.357 11.9122 250.746 10.1758 249.766 9.61985C248.787 9.05706 246.96 9.40709 245.008 10.5189C239.145 13.8613 234.005 22.6599 234.005 29.3516C234.005 31.3488 234.47 32.9136 235.276 33.6411C235.554 33.895 236.047 34.2176 237.103 34.1215L237.909 43.2907C237.52 43.3251 237.144 43.3388 236.769 43.3388Z" fill="#3C5186"/>
<path d="M236.769 43.3388C233.81 43.3388 231.073 42.323 228.975 40.4219C227.016 38.6512 224.689 35.2882 224.689 29.3516C224.689 19.3313 231.566 7.56088 240.347 2.55761C245.321 -0.276898 250.454 -0.606332 254.421 1.65166C258.387 3.91652 260.665 8.46683 260.665 14.1427C260.665 16.6821 258.582 18.7411 256.011 18.7411C253.441 18.7411 251.357 16.6821 251.357 14.1427C251.357 11.9122 250.746 10.1758 249.766 9.61985C248.787 9.05706 246.96 9.40709 245.008 10.5189C239.145 13.8613 234.005 22.6599 234.005 29.3516C234.005 31.3488 234.47 32.9136 235.276 33.6411C235.554 33.895 236.047 34.2176 237.103 34.1215C239.645 33.9087 241.924 35.7755 242.146 38.3081C242.368 40.8406 240.472 43.0711 237.909 43.2907C237.52 43.3251 237.144 43.3388 236.769 43.3388Z" fill="#3C5186"/>
<path d="M272.065 63.7843C269.106 63.7843 266.369 62.7685 264.271 60.8674C262.312 59.0967 259.985 55.7337 259.985 49.797C259.985 39.7768 266.862 28.0064 275.642 23.0031C280.616 20.1617 285.743 19.8391 289.716 22.0971C293.683 24.362 295.961 28.9123 295.961 34.5882C295.961 39.2483 294.454 44.4918 291.71 49.3578L283.575 44.883C285.527 41.4171 286.646 37.6629 286.646 34.5882C286.646 32.3576 286.034 30.6212 285.055 30.0653C284.075 29.5025 282.248 29.8526 280.296 30.9713C274.434 34.3136 269.293 43.1123 269.293 49.797C269.293 51.7942 269.759 53.359 270.564 54.0865C270.842 54.3405 271.335 54.6631 272.391 54.567L273.197 63.7362C272.815 63.7705 272.44 63.7843 272.065 63.7843Z" fill="#3C5186"/>
<path d="M272.065 63.7843C269.106 63.7843 266.369 62.7685 264.271 60.8674C262.312 59.0967 259.985 55.7337 259.985 49.797C259.985 39.7768 266.862 28.0064 275.642 23.0031C280.616 20.1617 285.743 19.8391 289.716 22.0971C293.683 24.362 295.961 28.9123 295.961 34.5882C295.961 37.1276 293.877 39.1865 291.307 39.1865C288.737 39.1865 286.653 37.1276 286.653 34.5882C286.653 32.3576 286.041 30.6212 285.062 30.0653C284.082 29.5025 282.255 29.8526 280.303 30.9713C274.441 34.3136 269.3 43.1123 269.3 49.797C269.3 51.7942 269.766 53.359 270.571 54.0865C270.849 54.3405 271.342 54.6631 272.398 54.567C274.934 54.3473 277.219 56.221 277.441 58.7535C277.664 61.286 275.767 63.5166 273.204 63.7362C272.815 63.7705 272.44 63.7843 272.065 63.7843Z" fill="#3C5186"/>
<path d="M307.562 83.9964C304.603 83.9964 301.866 82.9806 299.768 81.0795C297.809 79.3088 295.482 75.9458 295.482 70.0092C295.482 59.9889 302.359 48.2185 311.139 43.2152C316.113 40.3807 321.247 40.0513 325.213 42.3093C329.179 44.5741 331.458 49.1244 331.458 54.8003C331.458 59.4604 329.951 64.7108 327.207 69.5699L319.072 65.0951C321.024 61.6292 322.143 57.8819 322.143 54.8003C322.143 52.5698 321.531 50.8334 320.559 50.2774C319.579 49.7147 317.752 50.0647 315.8 51.1765C309.937 54.5189 304.797 63.3175 304.797 70.0092C304.797 72.0064 305.262 73.5712 306.068 74.2987C306.346 74.5526 306.832 74.8752 307.895 74.7791L308.701 83.9483C308.312 83.9827 307.937 83.9964 307.562 83.9964Z" fill="#3C5186"/>
<path d="M307.562 83.9964C304.603 83.9964 301.866 82.9806 299.768 81.0795C297.809 79.3088 295.482 75.9458 295.482 70.0092C295.482 59.9889 302.359 48.2185 311.139 43.2152C316.113 40.3807 321.247 40.0513 325.213 42.3093C329.179 44.5741 331.458 49.1244 331.458 54.8003C331.458 57.3397 329.374 59.3986 326.804 59.3986C324.234 59.3986 322.15 57.3397 322.15 54.8003C322.15 52.5698 321.538 50.8334 320.566 50.2774C319.586 49.7147 317.759 50.0647 315.807 51.1765C309.944 54.5189 304.804 63.3175 304.804 70.0092C304.804 72.0064 305.269 73.5712 306.075 74.2987C306.353 74.5526 306.839 74.8752 307.902 74.7791C310.438 74.5526 312.723 76.4331 312.945 78.9656C313.168 81.4982 311.271 83.7287 308.708 83.9483C308.312 83.9827 307.937 83.9964 307.562 83.9964Z" fill="#3C5186"/>
<path d="M342.649 103.824C339.69 103.824 336.953 102.809 334.855 100.907C332.903 99.1367 330.569 95.7738 330.569 89.8371C330.569 79.8168 337.446 68.0464 346.226 63.0431C351.2 60.2017 356.334 59.8792 360.3 62.1372C364.267 64.402 366.545 68.9523 366.545 74.6282C366.545 79.2883 365.038 84.5318 362.294 89.3978L354.159 84.923C356.111 81.4571 357.237 77.7029 357.237 74.6282C357.237 72.3977 356.625 70.6613 355.653 70.1054C354.666 69.5494 352.846 69.8926 350.894 71.0113C345.031 74.3537 339.891 83.1523 339.891 89.8371C339.891 91.8343 340.356 93.3991 341.162 94.1266C341.44 94.3737 341.926 94.7031 342.989 94.607L343.795 103.776C343.399 103.811 343.024 103.824 342.649 103.824Z" fill="#3C5186"/>
<path d="M342.649 103.824C339.69 103.824 336.953 102.809 334.855 100.907C332.903 99.1367 330.569 95.7738 330.569 89.8371C330.569 79.8168 337.446 68.0464 346.226 63.0431C351.2 60.2017 356.334 59.8792 360.3 62.1372C364.267 64.402 366.545 68.9523 366.545 74.6282C366.545 77.1676 364.461 79.2266 361.891 79.2266C359.321 79.2266 357.237 77.1676 357.237 74.6282C357.237 72.3977 356.625 70.6613 355.653 70.1054C354.666 69.5494 352.846 69.8926 350.894 71.0113C345.031 74.3537 339.891 83.1523 339.891 89.8371C339.891 91.8343 340.356 93.3991 341.162 94.1266C341.44 94.3737 341.926 94.7031 342.989 94.607C345.552 94.4011 347.81 96.261 348.032 98.7936C348.255 101.326 346.358 103.557 343.795 103.776C343.399 103.811 343.024 103.824 342.649 103.824Z" fill="#3C5186"/>
<path d="M377.986 124.05C375.027 124.05 372.29 123.034 370.192 121.133C368.233 119.363 365.899 116 365.899 110.063C365.899 100.043 372.776 88.2722 381.556 83.2689C386.53 80.4344 391.664 80.105 395.63 82.363C399.597 84.6278 401.875 89.1781 401.875 94.854C401.875 99.5141 400.368 104.764 397.624 109.624L389.489 105.149C391.441 101.683 392.56 97.9356 392.56 94.854C392.56 92.6235 391.949 90.8871 390.976 90.3312C389.997 89.7684 388.17 90.1184 386.218 91.2302C380.355 94.5726 375.214 103.371 375.214 110.063C375.214 112.06 375.68 113.625 376.485 114.352C376.763 114.599 377.243 114.922 378.312 114.833L379.118 124.002C378.736 124.036 378.361 124.05 377.986 124.05Z" fill="#3C5186"/>
<path d="M377.986 124.05C375.027 124.05 372.29 123.034 370.192 121.133C368.233 119.363 365.899 116 365.899 110.063C365.899 100.043 372.776 88.2722 381.556 83.2689C386.53 80.4344 391.664 80.105 395.63 82.363C399.597 84.6278 401.875 89.1781 401.875 94.854C401.875 97.3934 399.791 99.4524 397.221 99.4524C394.651 99.4524 392.567 97.3934 392.567 94.854C392.567 92.6235 391.955 90.8871 390.983 90.3312C390.004 89.7684 388.177 90.1184 386.225 91.2302C380.362 94.5726 375.221 103.371 375.221 110.063C375.221 112.06 375.687 113.625 376.492 114.352C376.77 114.599 377.25 114.922 378.319 114.833C380.897 114.62 383.14 116.487 383.363 119.019C383.585 121.552 381.688 123.782 379.125 124.002C378.736 124.036 378.361 124.05 377.986 124.05Z" fill="#3C5186"/>
<path opacity="0.3" d="M246.36 167.826C246.758 168.066 247.136 167.963 247.204 167.607L253.268 135.345C253.336 134.989 253.068 134.496 252.67 134.256L190.781 96.9564L184.278 130.417L246.037 167.634L246.36 167.826Z" fill="#4A66A4"/>
<path d="M133.674 167.804L135.975 173.212L139.389 175.885C140.218 175.94 140.854 176.619 140.854 177.441C140.854 178.524 139.969 179.401 138.885 179.401H133.225C131.808 179.401 130.447 178.853 129.431 177.873L122.106 170.813C120.613 169.374 120.82 166.941 122.534 165.776L124.428 164.487L126.418 163.37L133.674 167.804Z" fill="#3C5186"/>
<path d="M100.98 157.256L101.989 163.555L104.539 167.044C105.32 167.318 105.748 168.147 105.527 168.935C105.23 169.977 104.145 170.58 103.095 170.286L97.656 168.764C96.2946 168.38 95.1336 167.489 94.4218 166.276L89.308 157.524C88.2645 155.742 89.1283 153.459 91.0978 152.794L93.2678 152.061L95.4861 151.52L100.98 157.256Z" fill="#3C5186"/>
<path d="M177.577 103.138C178.959 103.138 179.851 103.042 180.493 101.726C181.385 99.8888 180.362 98.0794 178.51 97.1884L145.636 80.9103C143.784 80.0193 141.559 80.7938 140.668 82.6238C139.776 84.4606 140.55 86.6607 142.395 87.5518L175.953 102.767C176.485 103.021 177.038 103.138 177.577 103.138Z" fill="#F3B3B6"/>
<path d="M172.145 101.342C173.7 101.342 175.193 100.478 175.918 98.9977C176.927 96.9347 176.057 94.4536 173.97 93.4529L146.956 80.4921C144.876 79.4915 142.374 80.355 141.365 82.4249C140.356 84.488 141.227 86.9691 143.314 87.9698L170.328 100.931C170.915 101.205 171.537 101.342 172.145 101.342Z" fill="#D1E1F2"/>
<path d="M101.471 157.242C102.839 157.242 119.334 150.779 119.334 150.779C120.806 150.094 121.96 148.867 122.541 147.366L132.16 122.507C133.556 118.902 131.967 114.693 128.374 113.206C124.663 111.671 120.433 113.487 119.01 117.181L109.978 140.519L97.4072 150.368C94.1592 152.548 95.2994 152.308 97.497 155.529C98.8653 157.544 99.1901 157.242 101.471 157.242Z" fill="url(#paint7_linear_2_4363)"/>
<path d="M130.903 168.284C132.893 168.284 134.876 167.455 136.279 165.844L154.634 145.509C156.831 143.754 157.391 140.663 155.954 138.257L142.672 116.091C140.515 112.486 135.623 111.492 132.174 114.152C129.327 116.352 120.108 115.872 121.954 118.956L141.02 140.923L126.287 163.342C125.388 164.377 125.478 165.988 126.57 166.824C127.862 167.804 129.382 168.284 130.903 168.284Z" fill="url(#paint8_linear_2_4363)"/>
<path d="M167.204 121.232C168.628 121.232 169.485 120.725 170.1 119.354C170.936 117.496 170.051 116.064 168.179 115.235L148.324 105.653L137.62 91.2185C136.404 89.5736 134.075 89.224 132.416 90.4303C130.765 91.6366 130.405 93.9464 131.622 95.5913L143.487 111.595L165.684 120.91C166.181 121.129 166.7 121.232 167.204 121.232Z" fill="#F3B3B6"/>
<path d="M121.269 99.1348C123.391 90.821 125.402 84.344 132.119 80.499L139.88 76.51C145.346 73.3778 152.18 77.2913 152.18 83.5558L146.742 103.357L147.385 104.227L164.343 111.684C166.34 112.569 167.239 114.899 166.347 116.88C165.691 118.34 164.357 119.916 162.844 119.916C162.305 119.916 161.752 119.806 161.226 119.573L144.33 112.144L142.824 117.64C138.967 126.626 126.314 121.65 117.786 116.77L121.269 99.1348Z" fill="#D1E1F2"/>
<path d="M168.835 114.721C166.762 116.797 166.064 119.45 167.287 120.649C168.503 121.849 171.178 121.136 173.251 119.052C175.324 116.976 176.022 114.323 174.799 113.124C173.583 111.931 170.915 112.644 168.835 114.721Z" fill="#F3B3B6"/>
<path d="M142.54 83.3708L137.779 82.7334C137.592 82.706 137.461 82.5346 137.482 82.3496L138.615 74.0769C138.629 73.9603 138.739 73.8781 138.857 73.8987L143.874 74.5772C143.991 74.5909 144.074 74.7006 144.054 74.8171L142.92 83.0898C142.9 83.268 142.727 83.3982 142.54 83.3708Z" fill="#F3B3B6"/>
<path d="M140.232 79.5943L136.818 78.4291C135.326 77.915 134.531 76.2975 135.042 74.8171L139.645 61.5958L154.198 66.5786L151.572 74.1248C149.976 78.7307 144.89 81.1844 140.232 79.5943Z" fill="#F3B3B6"/>
<path d="M156.748 66.1332C156.659 64.8926 155.74 63.8371 154.503 63.6383C153.431 63.467 152.181 62.9941 151.372 61.8083C150.211 60.1154 148.138 59.1764 146.175 58.5185C144.22 57.8673 141.842 58.0318 140.363 59.4643C139.686 58.2991 137.931 58.1621 136.77 58.8474C135.609 59.5328 134.911 60.7871 134.344 62.0003C133.204 64.4265 132.313 67.0653 132.548 69.7315C132.61 70.4032 132.741 71.068 132.865 71.726C133.197 73.3983 133.163 75.0981 133.584 76.7636C133.639 76.983 133.709 77.2091 133.868 77.3599C134.102 77.5792 134.489 77.5724 134.78 77.4216C135.07 77.2708 135.277 77.0035 135.45 76.7294C136.3 75.4271 135.678 74.5567 135.927 73.1379C136.058 72.3771 136.528 71.6232 137.268 71.3696C138.256 71.0269 139.285 71.6574 140.281 71.9727C142.623 72.713 148.124 70.9035 147.067 67.6479C150.28 69.005 154.938 70.0948 156.748 66.1332Z" fill="#3C5186"/>
<path d="M132.513 93.8437C132.478 91.8355 131.815 90.7046 132.416 90.4304C133.674 89.8547 136.072 100.245 139.196 106.88C140.709 110.108 144.33 112.13 144.33 112.13L143.459 115.29C141.144 113.843 139.258 111.801 138.014 109.388L132.513 93.8437Z" fill="#A6CBED"/>
<path d="M178.392 96.5441C178.462 96.1877 178.842 96.0849 179.242 96.3248L245.881 136.235C246.282 136.475 246.552 136.962 246.482 137.325L240.38 169.586C240.311 169.943 239.931 170.046 239.53 169.806L172.892 129.895C172.491 129.655 172.221 129.169 172.29 128.806L178.392 96.5441Z" fill="#4A66A4"/>
<path fill-rule="evenodd" clip-rule="evenodd" d="M225.993 156.05C225.322 156.057 224.645 156.016 223.954 155.92C223.643 155.879 223.332 155.831 223.035 155.769C222.067 155.577 221.086 155.282 220.119 154.898C219.165 154.521 218.218 154.049 217.299 153.5C216.414 152.966 215.544 152.356 214.708 151.677C213.92 151.04 213.153 150.327 212.441 149.573C211.75 148.846 211.1 148.065 210.506 147.249C209.925 146.454 209.393 145.618 208.923 144.768C208.453 143.918 208.046 143.055 207.714 142.191C207.375 141.314 207.113 140.43 206.919 139.566C206.719 138.675 206.608 137.798 206.581 136.955C206.553 136.078 206.615 135.221 206.767 134.412C206.926 133.583 207.182 132.795 207.527 132.082C207.88 131.355 208.329 130.684 208.868 130.101C209.428 129.498 210.077 128.97 210.817 128.538C211.57 128.093 212.413 127.75 213.312 127.517C213.823 127.38 214.355 127.284 214.901 127.222C215.613 127.14 216.352 127.167 217.071 127.263L217.403 127.311L216.573 131.513C216.228 131.52 215.896 131.561 215.585 131.643C215.288 131.718 214.998 131.835 214.735 131.993C214.438 132.171 214.162 132.39 213.92 132.657C213.643 132.959 213.401 133.315 213.208 133.72C212.994 134.172 212.828 134.679 212.724 135.228C212.614 135.81 212.572 136.427 212.593 137.078C212.614 137.723 212.703 138.408 212.856 139.1C213.008 139.792 213.222 140.505 213.498 141.211C213.768 141.917 214.099 142.63 214.486 143.329C214.873 144.028 215.309 144.714 215.786 145.365C216.262 146.023 216.788 146.653 217.341 147.236C217.9 147.825 218.488 148.374 219.096 148.867C219.704 149.36 220.34 149.806 220.975 150.19C221.584 150.553 222.192 150.855 222.793 151.095C223.325 151.307 223.85 151.471 224.348 151.567C224.783 151.657 225.205 151.698 225.592 151.691C225.937 151.691 226.269 151.65 226.573 151.567C226.884 151.485 227.167 151.369 227.437 151.211C227.734 151.033 228.01 150.814 228.252 150.546C228.536 150.245 228.771 149.881 228.971 149.477C229.192 149.031 229.358 148.524 229.462 147.969C229.572 147.387 229.621 146.77 229.6 146.119L235.605 146.235C235.633 147.119 235.571 147.976 235.412 148.785C235.253 149.614 234.99 150.402 234.645 151.115C234.292 151.842 233.836 152.506 233.297 153.096C232.737 153.699 232.081 154.227 231.348 154.659C230.588 155.097 229.752 155.447 228.847 155.68C227.948 155.913 226.988 156.036 225.993 156.05ZM226.407 137.825C226.884 138.483 227.326 139.169 227.706 139.861C228.086 140.56 228.418 141.266 228.702 141.986L233.967 141.088L234.479 140.999C234.14 140.128 233.739 139.265 233.269 138.415C232.799 137.572 232.267 136.736 231.68 135.934C231.086 135.125 230.436 134.344 229.745 133.61C229.033 132.856 228.266 132.15 227.471 131.506C226.642 130.827 225.771 130.217 224.873 129.683C223.954 129.128 223 128.662 222.054 128.285L219.386 132.095C219.98 132.328 220.595 132.637 221.21 133C221.853 133.384 222.489 133.829 223.097 134.323C223.705 134.816 224.293 135.365 224.852 135.954C225.405 136.537 225.93 137.167 226.407 137.825Z" fill="url(#paint9_linear_2_4363)"/>
<path d="M245.881 136.228L179.242 96.3179C178.842 96.078 178.462 96.1808 178.392 96.5372L178.337 96.8457L244.658 136.564C245.059 136.804 245.328 137.291 245.259 137.654L239.213 169.607L239.53 169.799C239.931 170.039 240.311 169.936 240.38 169.58L246.482 137.318C246.545 136.955 246.275 136.468 245.881 136.228Z" fill="url(#paint10_linear_2_4363)"/>
<path d="M196.429 115.05L196.008 117.284L181.15 108.388L181.592 106.064L196.429 115.05Z" fill="#EDF3FA"/>
<path d="M204.964 127.887L204.535 130.128L179.816 115.454L180.258 113.131L204.964 127.887Z" fill="#EDF3FA"/>
<path d="M203.844 133.782L203.423 136.016L178.703 121.349L179.146 119.018L203.844 133.782Z" fill="#EDF3FA"/>
<path d="M202.808 139.278L202.386 141.513L177.66 126.845L178.102 124.515L202.808 139.278Z" fill="#EDF3FA"/>
<path d="M175.905 100.65C176.333 100.238 177.024 100.245 177.439 100.677L180.783 104.104C181.198 104.529 181.191 105.214 180.756 105.626C180.327 106.037 179.636 106.03 179.222 105.598L175.877 102.171C175.462 101.746 175.476 101.068 175.905 100.65Z" fill="#F3B3B6"/>
<path d="M173.472 113.185C173.9 112.774 174.592 112.781 175.006 113.213L178.351 116.64C178.765 117.065 178.759 117.75 178.323 118.161C177.895 118.573 177.204 118.566 176.789 118.134L173.444 114.707C173.03 114.282 173.037 113.597 173.472 113.185Z" fill="#F3B3B6"/>
<path d="M172.042 115.201C172.47 114.789 173.161 114.796 173.576 115.228L176.92 118.655C177.335 119.08 177.328 119.765 176.893 120.176C176.464 120.588 175.773 120.581 175.359 120.149L172.014 116.722C171.599 116.297 171.606 115.612 172.042 115.201Z" fill="#F3B3B6"/>
<path d="M170.708 117.188C171.136 116.777 171.827 116.784 172.242 117.216L175.587 120.643C176.001 121.068 175.994 121.753 175.559 122.164C175.131 122.575 174.44 122.569 174.025 122.137L170.68 118.71C170.266 118.285 170.279 117.606 170.708 117.188Z" fill="#F3B3B6"/>
<path d="M168.621 118.764C169.049 118.353 169.74 118.36 170.155 118.792L173.5 122.219C173.914 122.644 173.907 123.329 173.472 123.74C173.044 124.152 172.352 124.145 171.938 123.713L168.593 120.286C168.172 119.861 168.185 119.183 168.621 118.764Z" fill="#F3B3B6"/>
<path d="M373.507 236.309C373.294 236.309 373.08 236.309 372.866 236.295C366.98 236.104 361.618 233.283 358.158 228.553L356.449 226.211C355.457 224.856 355.76 222.96 357.124 221.981C358.489 220.995 360.398 221.296 361.384 222.651L363.093 224.993C365.443 228.203 369.076 230.113 373.066 230.244C377.057 230.374 380.813 228.696 383.37 225.65L390.228 217.469C391.303 216.182 393.233 216.011 394.522 217.079C395.818 218.147 395.99 220.064 394.915 221.344L388.057 229.525C384.432 233.865 379.152 236.309 373.507 236.309Z" fill="#F09EA3"/>
<path d="M362.121 222.747C362.121 224.733 360.502 226.348 358.496 226.348C356.497 226.348 354.871 224.739 354.871 222.747C354.871 220.762 356.49 219.146 358.496 219.146C360.502 219.146 362.121 220.762 362.121 222.747Z" fill="#F09EA3"/>
<path opacity="0.3" d="M359.537 201.347L293.075 161.484C292.675 161.244 292.296 161.347 292.227 161.703L287.664 184.794C287.595 185.15 287.864 185.643 288.264 185.882L354.409 225.554L354.726 225.746C355.126 225.985 355.505 225.883 355.574 225.527L360.136 202.436C360.198 202.073 359.93 201.587 359.537 201.347Z" fill="#4A66A4"/>
<path d="M294.398 167.09C294.467 166.734 294.846 166.632 295.246 166.871L361.708 206.735C362.107 206.974 362.376 207.46 362.307 207.823L357.745 230.914C357.676 231.277 357.297 231.373 356.897 231.133L290.435 191.27C290.035 191.03 289.766 190.544 289.835 190.181L294.398 167.09Z" fill="#4A66A4"/>
<path d="M361.701 206.728L295.239 166.864C294.839 166.625 294.46 166.727 294.391 167.083L294.336 167.392L360.481 207.063C360.881 207.303 361.15 207.789 361.081 208.152L356.58 230.935L356.897 231.127C357.297 231.366 357.676 231.264 357.745 230.908L362.307 207.816C362.369 207.46 362.101 206.968 361.701 206.728Z" fill="url(#paint11_linear_2_4363)"/>
<path d="M356.09 210.87L355.663 213.108L297.306 178.461L297.748 176.141L356.09 210.87Z" fill="#EDF3FA"/>
<path d="M354.974 216.75L354.554 218.989L296.197 184.349L296.631 182.021L354.974 216.75Z" fill="#EDF3FA"/>
<path d="M353.94 222.241L353.52 224.479L295.156 189.839L295.597 187.512L353.94 222.241Z" fill="#EDF3FA"/>
<path d="M367.925 334.226L376.126 336.409L380.792 339.333C381.337 339.675 381.668 340.27 381.668 340.914V349.916L379.166 351.354C378.222 351.895 377.057 351.895 376.113 351.354L361.908 343.207C360.812 342.578 360.136 341.421 360.136 340.161C360.136 336.115 363.996 333.178 367.925 334.226Z" fill="#4A66A4"/>
<path d="M376.113 349.006L361.908 340.859C361.115 340.407 360.543 339.668 360.288 338.819C360.191 339.25 360.136 339.695 360.136 340.161C360.136 341.414 360.812 342.578 361.908 343.207L376.113 351.354C377.057 351.895 378.222 351.895 379.166 351.354L381.668 349.916V347.568L379.166 349.006C378.222 349.547 377.057 349.547 376.113 349.006Z" fill="#3C5186"/>
<path d="M380.792 339.326L376.126 336.403L373.032 335.581V341.167C373.032 343.016 374.879 344.515 377.16 344.515C379.442 344.515 381.289 343.016 381.289 341.167V339.805C381.151 339.62 380.992 339.449 380.792 339.326Z" fill="#3C5186"/>
<path d="M379.972 322.827L388.174 325.011L392.84 327.934C393.385 328.277 393.716 328.872 393.716 329.516V338.518L391.214 339.956C390.269 340.496 389.105 340.496 388.16 339.956L373.955 331.809C372.86 331.179 372.184 330.022 372.184 328.763C372.184 324.724 376.044 321.787 379.972 322.827Z" fill="#4A66A4"/>
<path d="M388.16 337.607L373.955 329.461C373.163 329.009 372.591 328.27 372.336 327.421C372.239 327.852 372.184 328.297 372.184 328.763C372.184 330.015 372.86 331.179 373.955 331.809L388.16 339.956C389.105 340.496 390.269 340.496 391.214 339.956L393.716 338.518V336.17L391.214 337.607C390.269 338.148 389.105 338.148 388.16 337.607Z" fill="#3C5186"/>
<path d="M392.84 327.934L388.174 325.011L385.079 324.189V329.776C385.079 331.624 386.927 333.13 389.208 333.13C391.489 333.13 393.336 331.631 393.336 329.776V328.413C393.199 328.229 393.04 328.057 392.84 327.934Z" fill="#3C5186"/>
<path d="M377.257 343.351C375.575 343.351 374.203 341.996 374.203 340.318V302.906C374.203 301.235 375.568 299.873 377.257 299.873C378.938 299.873 383.997 292.719 383.997 294.389L380.31 340.318C380.31 341.996 378.938 343.351 377.257 343.351Z" fill="#F3B3B6"/>
<path d="M389.146 331.871C387.464 331.871 386.093 330.515 386.093 328.838L385.3 291.788C385.3 290.118 387.457 291.925 389.139 291.925C390.821 291.925 393.716 287.509 393.716 289.18L392.192 328.838C392.192 330.508 390.828 331.871 389.146 331.871Z" fill="#F3B3B6"/>
<path d="M376.947 216.107L383.763 211.787C388.691 208.665 395.108 212.431 394.735 218.222L392.709 249.467L392.578 258.592L375.796 264.904L374.865 259.701L373.886 237.781L370.385 233.269L373.232 223.192C373.108 220.338 374.52 217.64 376.947 216.107Z" fill="url(#paint12_linear_2_4363)"/>
<path d="M374.865 261.591C373.404 262.214 372.308 271.914 372.184 273.236C371.612 279.486 372.15 288.235 371.888 294.506C371.757 297.634 371.543 306.507 371.543 306.507C386.982 310.032 396.245 299.606 398.12 294.704C398.326 290.446 398.361 269.71 396.1 264.035C395.397 262.275 394.798 260.482 394.343 258.64L393.137 253.759C393.137 253.766 374.879 261.584 374.865 261.591Z" fill="url(#paint13_linear_2_4363)"/>
<path d="M374.865 257.045V261.591C379.614 262.084 391.152 257.867 393.136 253.766L392.702 249.467C389.78 255.053 377.195 258.086 374.865 257.045Z" fill="#4A66A4"/>
<path d="M363.493 236.309C357.848 236.309 352.569 233.858 348.936 229.525L342.079 221.344C341.003 220.057 341.176 218.147 342.472 217.079C343.767 216.011 345.69 216.182 346.765 217.469L353.623 225.65C356.18 228.696 359.93 230.36 363.927 230.244C367.918 230.113 371.557 228.197 373.9 224.993L375.61 222.651C376.602 221.296 378.511 221.002 379.869 221.981C381.234 222.966 381.53 224.863 380.544 226.211L378.835 228.553C375.375 233.283 370.013 236.104 364.127 236.295C363.913 236.309 363.7 236.309 363.493 236.309Z" fill="#F3B3B6"/>
<path d="M384.335 220.919C382.653 220.919 381.282 219.564 381.282 217.887V207.721C381.282 206.05 382.647 204.688 384.335 204.688C386.017 204.688 387.388 206.043 387.388 207.721V217.887C387.388 219.564 386.024 220.919 384.335 220.919Z" fill="#FCC00E"/>
<path d="M375.506 214.806H385.438V195.843H371.309V210.63C371.302 212.937 373.183 214.806 375.506 214.806Z" fill="#F3B3B6"/>
<path d="M401.91 228.888C401.331 225.842 399.45 223.192 398.471 220.255C397.906 218.551 398.071 216.805 397.61 215.169C397.01 213.067 395.466 211.171 394.66 209.124C393.447 206.037 392.454 202.833 391.345 199.697C390.207 196.493 388.105 194.063 384.735 193.194C381.275 192.304 376.216 191.783 372.722 192.783C368.4 194.022 369.834 198.266 371.522 201.641C373.549 205.687 377.25 208.864 378.559 213.197C379.91 217.661 378.442 222.419 377.698 227.019C376.954 231.626 377.277 237.076 381.006 239.91C383.06 241.471 385.783 241.895 388.367 241.827C391.682 241.731 395.039 240.855 397.692 238.876C400.339 236.898 402.186 233.728 402.09 230.435C402.069 229.908 402.007 229.388 401.91 228.888Z" fill="#3C5186"/>
<path d="M347.468 217.887C347.468 219.872 345.849 221.488 343.843 221.488C341.837 221.488 340.218 219.879 340.218 217.887C340.218 215.901 341.837 214.286 343.843 214.286C345.849 214.286 347.468 215.901 347.468 217.887Z" fill="#F3B3B6"/>
<path d="M306.72 332.629H304.675C303.833 331.705 302.741 330.843 301.384 330.07C294.261 326.026 282.609 326.026 275.485 330.07C274.129 330.843 273.029 331.705 272.195 332.629H270.149V337.384C270.136 340.059 271.909 342.741 275.492 344.773C282.616 348.817 294.268 348.817 301.391 344.773C304.967 342.741 306.748 340.059 306.734 337.384V332.629H306.72Z" fill="url(#paint14_linear_2_4363)"/>
<path d="M275.485 325.273C282.609 321.23 294.261 321.23 301.384 325.273C308.508 329.317 308.508 335.933 301.384 339.977C294.261 344.021 282.609 344.021 275.485 339.977C268.362 335.94 268.362 329.317 275.485 325.273Z" fill="white"/>
<path d="M306.72 332.724C306.72 332.663 306.72 332.594 306.72 332.533V328.592H305.301C304.41 327.381 303.11 326.252 301.384 325.273C296.355 322.413 299.729 333.326 301.384 339.977V344.773C304.87 342.796 306.65 340.196 306.72 337.582V332.724Z" fill="#FFD986"/>
<path d="M301.384 317.206C294.261 313.163 282.609 313.163 275.485 317.206L288.431 325.903L301.384 317.206Z" fill="url(#paint15_linear_2_4363)"/>
<path d="M275.485 317.206V325.273L288.431 333.976V325.903L275.485 317.206Z" fill="url(#paint16_linear_2_4363)"/>
<path d="M288.431 325.903L301.384 317.206V325.273L288.431 333.976V325.903Z" fill="#3C5186"/>
<path d="M301.384 321.243C308.508 325.287 308.508 331.903 301.384 335.947L288.438 329.94L301.384 321.243Z" fill="url(#paint17_linear_2_4363)"/>
<path d="M288.431 329.94V333.976L301.384 339.984V335.947L288.431 329.94Z" fill="#FECC55"/>
<path d="M102.271 228.776H100.685C100.037 228.086 99.1817 227.436 98.1334 226.858C92.6093 223.815 83.5679 223.815 78.0369 226.858C76.9817 227.436 76.1334 228.086 75.4783 228.776H73.8921V232.351C73.8783 234.362 75.2576 236.38 78.0369 237.904C83.561 240.947 92.6024 240.947 98.1334 237.904C100.913 236.38 102.292 234.362 102.278 232.351V228.776H102.271Z" fill="url(#paint18_linear_2_4363)"/>
<path d="M78.0299 223.25C83.5541 220.207 92.5955 220.207 98.1265 223.25C103.651 226.293 103.651 231.267 98.1265 234.303C92.6024 237.346 83.561 237.346 78.0299 234.303C72.5058 231.267 72.5058 226.293 78.0299 223.25Z" fill="#4A66A4"/>
<path d="M93.5747 230.985C93.7747 230.722 93.6299 230.426 93.292 230.288L93.0644 230.189C93.4782 230.36 94.092 230.235 94.3402 229.907C94.5402 229.644 94.3954 229.348 94.0575 229.21L92.4023 228.52L90.9333 227.903C90.9333 227.903 91.2023 227.758 91.5471 227.554C91.6161 227.515 91.692 227.469 91.7678 227.423C91.7885 227.41 91.8161 227.397 91.8368 227.377C92.1816 227.16 92.5402 226.917 92.7609 226.72C92.8161 226.667 92.9265 226.555 93.0437 226.437C93.0713 226.404 93.0989 226.378 93.1333 226.345C93.223 226.253 93.3058 226.161 93.3678 226.082C93.492 225.938 93.5058 225.78 93.423 225.649C93.3747 225.57 93.292 225.504 93.1747 225.451C92.8782 225.327 92.4575 225.373 92.1954 225.563C91.7333 225.892 91.0161 226.365 90.5678 226.483C90.1678 226.588 88.6851 226.963 88.6851 226.963L88.6299 226.937L88.0299 226.687L88.5058 226.24C88.554 226.194 88.5402 226.141 88.4782 226.115L86.292 225.202L83.3471 227.949L81.892 229.302L84.0644 230.216L84.0782 230.222C84.1402 230.249 84.2299 230.235 84.2713 230.189L84.2782 230.183L84.6851 229.802L85.0575 229.959C85.0989 229.979 85.1333 229.992 85.1609 230.019C85.1885 230.038 85.2161 230.065 85.2437 230.091C85.2851 230.137 85.3127 230.189 85.3265 230.242L85.4782 231.017C85.5058 231.155 85.623 231.28 85.7954 231.353L88.7402 232.588C89.0782 232.733 89.5747 232.7 89.8851 232.489C90.2782 232.22 90.2299 231.819 89.8161 231.642L90.492 231.924C90.8299 232.069 91.3265 232.036 91.6368 231.826C92.0299 231.556 91.9816 231.155 91.5678 230.978L92.2851 231.28C92.7127 231.445 93.3265 231.32 93.5747 230.985Z" fill="white"/>
<path d="M215.228 276.525H213.455C212.726 275.692 211.778 274.915 210.605 274.215C204.442 270.561 194.365 270.561 188.201 274.215C187.028 274.908 186.08 275.692 185.351 276.525H183.578V280.823C183.565 283.238 185.105 285.66 188.201 287.501C194.365 291.155 204.442 291.155 210.605 287.501C213.701 285.667 215.242 283.245 215.228 280.823V276.525Z" fill="url(#paint19_linear_2_4363)"/>
<path d="M188.208 269.889C194.371 266.235 204.449 266.235 210.612 269.889C216.776 273.543 216.776 279.514 210.612 283.168C204.449 286.822 194.371 286.822 188.208 283.168C182.044 279.514 182.044 273.536 188.208 269.889Z" fill="url(#paint20_linear_2_4363)"/>
<path d="M202.587 279.724C202.587 279.724 202.362 279.724 202.28 279.717L195.271 279.08L195.019 274.159C195.005 273.55 195.305 272.976 195.933 272.57C197.215 271.73 199.362 271.926 200.733 272.99C201.428 273.529 201.79 274.194 201.81 274.824C202.69 274.894 203.583 275.209 204.278 275.748C205.649 276.819 205.724 278.359 204.442 279.199C203.924 279.535 203.269 279.703 202.587 279.724Z" fill="white"/>
<path d="M36.5318 335.143H34.5262C33.7061 334.256 32.631 333.423 31.3008 332.683C24.3262 328.79 12.9202 328.79 5.94557 332.683C4.61544 333.423 3.54719 334.256 2.72017 335.143H0.721517V339.723C0.707733 342.303 2.44449 344.883 5.94557 346.836C12.9202 350.73 24.3262 350.73 31.3008 346.836C34.8019 344.883 36.5456 342.296 36.5249 339.723V335.143H36.5318Z" fill="url(#paint21_linear_2_4363)"/>
<path d="M5.9525 328.063C12.9271 324.17 24.3332 324.17 31.3078 328.063C38.2824 331.956 38.2824 338.33 31.3078 342.223C24.3332 346.116 12.9271 346.116 5.9525 342.223C-1.02209 338.33 -1.02209 331.956 5.9525 328.063Z" fill="#3C5186"/>
<path d="M19.109 339.423C17.7927 339.99 15.6975 339.89 14.4294 339.196C13.1613 338.503 13.1958 337.483 14.5121 336.916C14.7602 336.81 15.0497 336.73 15.3461 336.67L14.4777 334.123C13.6507 334.076 12.8374 333.883 12.2171 333.543C10.949 332.85 10.9835 331.83 12.2998 331.263C13.6162 330.696 15.7113 330.796 16.9794 331.49C17.6204 331.836 17.9236 332.27 17.9029 332.69L22.872 333.443C23.0374 333.29 23.2442 333.15 23.5198 333.03C24.8362 332.463 26.9313 332.563 28.1994 333.256C29.4675 333.95 29.4331 334.97 28.1167 335.536C26.8004 336.103 24.7052 336.003 23.4371 335.31C22.8307 334.976 22.5274 334.57 22.5136 334.176L17.4757 333.41C17.3171 333.543 17.1379 333.663 16.8898 333.77C16.6211 333.883 16.3178 333.963 16.0077 334.023L16.8692 336.55C17.7169 336.59 18.5577 336.79 19.1917 337.136C20.4598 337.836 20.4254 338.856 19.109 339.423Z" fill="white"/>
<path fill-rule="evenodd" clip-rule="evenodd" d="M254.144 247.204C254.896 247.204 255.509 247.544 255.509 247.966L255.53 251.855C255.53 252.277 254.924 252.617 254.172 252.617H252.501L252.543 255.894V255.928V256.003L252.529 256.01C252.487 256.173 252.368 256.33 252.146 256.452L248.803 258.336C248.482 258.512 248.037 258.574 247.619 258.533L247.584 258.553V258.533C247.326 258.506 247.083 258.444 246.881 258.336L244.826 257.18C244.492 256.989 243.976 256.948 243.538 257.064C243.273 257.132 243.008 257.2 242.737 257.254C242.284 257.35 241.978 257.581 241.978 257.853L241.985 259.485C241.985 259.906 241.379 260.253 240.627 260.253L235.891 260.26C235.139 260.26 234.526 259.92 234.526 259.498L234.519 257.853C234.519 257.594 234.24 257.363 233.809 257.268C233.551 257.211 233.258 257.143 232.984 257.08L232.917 257.064C232.492 256.962 232.005 257.016 231.678 257.2L229.609 258.363C229.407 258.478 229.156 258.533 228.899 258.56V258.574L228.878 258.56C228.46 258.601 228.014 258.546 227.687 258.363L224.33 256.486C224.093 256.357 223.968 256.194 223.94 256.024C223.926 255.969 223.926 255.915 223.94 255.86L223.982 252.651H222.276C221.524 252.651 220.911 252.311 220.911 251.889L220.897 248.006C220.897 247.585 221.503 247.238 222.255 247.238L225.194 247.231C225.412 247.231 225.709 247.341 225.975 247.439C226.271 247.549 226.528 247.643 226.594 247.558C226.768 247.32 226.677 247.048 226.35 246.864L224.275 245.701C224.011 245.554 224.625 245.565 225.381 245.578C226.161 245.592 227.091 245.608 227.36 245.456L227.603 242.736C228.133 242.437 228.996 242.437 229.526 242.736L231.587 243.886C231.928 244.076 232.437 244.117 232.875 244.001C233.154 243.933 233.433 243.865 233.718 243.804C234.164 243.709 234.477 243.478 234.477 243.206V241.574C234.477 241.152 235.083 240.812 235.835 240.812H240.571C241.323 240.812 241.929 241.152 241.929 241.574V243.219C241.929 243.478 242.208 243.709 242.639 243.804C242.897 243.861 243.19 243.929 243.463 243.992L243.531 244.008C243.956 244.11 244.443 244.056 244.77 243.872L246.839 242.709C247.368 242.41 248.232 242.41 248.761 242.709L248.733 245.212C248.985 245.351 249.883 245.393 250.697 245.431C251.593 245.473 252.388 245.51 252.111 245.667L250.056 246.823C249.715 247.02 249.638 247.306 249.84 247.551C249.904 247.627 250.141 247.536 250.421 247.428C250.692 247.324 251.004 247.204 251.24 247.204H254.144ZM235.786 254.038C239.68 254.881 244.018 253.555 244.805 251.202C245.39 249.448 243.586 247.653 240.627 247.007C236.734 246.164 232.395 247.49 231.608 249.842C231.023 251.597 232.827 253.399 235.786 254.038Z" fill="#3C5186"/>
<path d="M252.529 243.539L252.515 241.451H249.45L248.768 241.07C248.239 240.771 247.375 240.771 246.846 241.07L246.163 241.451H241.936V239.928C241.936 239.506 241.33 239.166 240.578 239.166H235.842C235.09 239.166 234.484 239.506 234.484 239.928V241.451H230.187L229.533 241.084C229.003 240.785 228.14 240.785 227.61 241.084L226.97 241.444H223.885V243.484C223.878 243.688 224.003 243.892 224.282 244.049L226.357 245.212L250.077 245.184L252.132 244.028C252.375 243.892 252.501 243.716 252.522 243.539H252.529Z" fill="#3C5186"/>
<path fill-rule="evenodd" clip-rule="evenodd" d="M254.158 248.938H250.446C250.425 248.972 250.119 249.441 249.82 249.842C249.638 250.08 249.729 250.352 250.056 250.536L252.132 251.699C252.661 251.998 252.661 252.481 252.132 252.78L248.789 254.664C248.26 254.963 247.396 254.963 246.867 254.664L244.812 253.508C244.478 253.317 243.963 253.276 243.524 253.392C243.259 253.46 242.995 253.528 242.723 253.582C242.27 253.678 241.964 253.909 241.964 254.181L241.971 255.813C241.971 256.234 241.365 256.581 240.613 256.581L235.877 256.588C235.125 256.588 234.512 256.248 234.512 255.826L234.505 254.181C234.505 253.922 234.226 253.691 233.795 253.596C233.537 253.539 233.244 253.471 232.97 253.408L232.903 253.392C232.478 253.29 231.991 253.344 231.664 253.528L229.595 254.691C229.066 254.99 228.202 254.99 227.673 254.691L224.316 252.814C223.78 252.515 223.78 252.032 224.309 251.733L226.364 250.577C226.705 250.38 226.775 250.094 226.573 249.849C226.454 249.7 226.343 249.55 226.238 249.4C226.064 249.149 225.653 248.972 225.173 248.972L222.269 248.979C221.517 248.979 220.904 248.639 220.904 248.217L220.89 245.558C220.89 245.137 221.496 244.79 222.248 244.79L225.187 244.783C225.653 244.783 226.064 244.627 226.231 244.382C226.278 244.32 226.327 244.252 226.377 244.181C226.447 244.083 226.52 243.981 226.594 243.886C226.768 243.648 226.677 243.376 226.35 243.192L224.275 242.029C223.738 241.73 223.738 241.247 224.268 240.948L227.603 239.064C228.133 238.765 228.996 238.765 229.526 239.064L231.587 240.214C231.928 240.404 232.437 240.445 232.875 240.329C233.154 240.261 233.433 240.193 233.718 240.132C234.164 240.037 234.477 239.806 234.477 239.534V237.902C234.477 237.48 235.083 237.14 235.835 237.14H240.571C241.323 237.14 241.929 237.48 241.929 237.902V239.547C241.929 239.806 242.208 240.037 242.639 240.132C242.897 240.189 243.19 240.257 243.463 240.32L243.531 240.336C243.956 240.438 244.443 240.384 244.77 240.2L246.839 239.037C247.368 238.738 248.232 238.738 248.761 239.037L252.111 240.914C252.64 241.213 252.64 241.696 252.111 241.995L250.056 243.151C249.715 243.342 249.638 243.634 249.84 243.879C249.959 244.022 250.07 244.178 250.175 244.328C250.349 244.579 250.76 244.756 251.24 244.756H254.144C254.896 244.756 255.509 245.096 255.509 245.518L255.516 248.176C255.516 248.598 254.91 248.938 254.158 248.938ZM240.627 243.335C236.734 242.492 232.395 243.818 231.608 246.17C231.016 247.925 232.82 249.727 235.786 250.366C239.68 251.209 244.018 249.883 244.805 247.53C245.39 245.776 243.587 243.974 240.627 243.335Z" fill="url(#paint22_linear_2_4363)"/>
<path d="M162.645 361.541L160.961 361.053C158.225 360.262 155.269 360.771 152.956 362.441L151.198 361.135L149.412 365.274L140.777 364.538L142.659 372.245C142.782 372.74 143.151 373.132 143.637 373.276L147.181 374.321C150.137 375.195 153.332 374.411 155.556 372.28L163.418 364.751C164.492 363.734 164.054 361.946 162.645 361.541Z" fill="#3C5186"/>
<path d="M162.645 361.541L160.961 361.053C158.225 360.262 155.269 360.771 152.956 362.441L151.198 361.135L149.412 365.274L140.777 364.538L141.749 368.54C142.18 370.313 143.521 371.723 145.266 372.238L146.778 372.685C149.734 373.558 152.929 372.781 155.159 370.643L163.021 363.115C163.308 362.84 163.479 362.503 163.555 362.153C163.336 361.871 163.035 361.651 162.645 361.541Z" fill="#5D7DBE"/>
<path d="M150.514 364.442C152.32 362.71 151.841 360.723 149.439 360.028C147.038 359.334 143.603 360.18 141.81 361.905C140.011 363.638 140.497 365.625 142.885 366.319C145.266 367.02 148.7 366.175 150.514 364.442Z" fill="#FAF8F9"/>
<path d="M145.772 364.71C144.198 364.71 142.926 363.431 142.926 361.85V350.816C142.926 349.235 144.198 347.956 145.772 347.956C147.346 347.956 148.618 349.235 148.618 350.816V361.85C148.625 363.431 147.346 364.71 145.772 364.71Z" fill="#F09EA3"/>
<path d="M145.779 362.909C145.71 362.909 145.642 362.909 145.573 362.902C143.103 362.792 141.195 360.688 141.304 358.206L142.515 331.208L141.297 287.999C141.229 285.517 143.172 283.448 145.649 283.379C148.105 283.29 152.97 285.263 153.045 287.751L151.478 331.284L151.471 331.449L150.253 358.612C150.137 361.025 148.16 362.909 145.779 362.909Z" fill="url(#paint23_linear_2_4363)"/>
<path d="M174.598 372.548L173.079 371.675C170.609 370.251 167.619 370.038 164.971 371.104L163.575 369.413L160.859 373.008L152.648 370.231V378.165C152.648 378.673 152.915 379.148 153.353 379.402L156.548 381.265C159.21 382.819 162.494 382.826 165.169 381.286L174.591 375.855C175.87 375.119 175.87 373.276 174.598 372.548Z" fill="#3C5186"/>
<path d="M174.598 372.548L173.079 371.675C170.609 370.251 167.619 370.038 164.971 371.104L163.575 369.413L160.859 373.008L152.648 370.231V374.349C152.648 376.178 153.613 377.862 155.187 378.776L156.555 379.574C159.217 381.128 162.501 381.135 165.176 379.595L174.598 374.163C174.947 373.964 175.186 373.675 175.343 373.359C175.193 373.029 174.947 372.747 174.598 372.548Z" fill="#5D7DBE"/>
<path d="M162.125 372.465C164.293 371.214 164.293 369.172 162.125 367.921C159.956 366.67 156.418 366.67 154.27 367.921C152.115 369.172 152.115 371.214 154.27 372.465C156.418 373.716 159.956 373.716 162.125 372.465Z" fill="#FAF8F9"/>
<path d="M158.19 372.005C156.617 372.005 155.344 370.726 155.344 369.145V358.11C155.344 356.529 156.617 355.25 158.19 355.25C159.764 355.25 161.037 356.536 161.037 358.11V369.145C161.037 370.719 159.764 372.005 158.19 372.005Z" fill="#F09EA3"/>
<path d="M145.779 295.403C144.657 295.403 143.562 294.819 142.953 293.767L137.062 283.523C130.938 272.867 133.668 259.213 143.405 251.761L145.012 250.53C146.442 249.437 148.488 249.712 149.576 251.149C150.664 252.586 150.39 254.641 148.96 255.735L147.352 256.965C140.209 262.431 138.211 272.441 142.7 280.251L148.591 290.495C149.487 292.062 148.953 294.063 147.4 294.963C146.894 295.259 146.333 295.403 145.779 295.403Z" fill="#5D7DBE"/>
<path d="M141.619 299.226L141.304 288.006L159.203 281.096L159.052 291.003C160.996 291.388 162.521 293.031 162.658 295.115L165.121 334.426L162.651 364.669C162.46 367.02 160.503 368.801 158.197 368.801C157.739 368.801 157.274 368.732 156.767 368.567C154.783 367.9 153.572 365.879 153.743 363.789L156.145 334.343L152.019 307.758L143.966 303.151C142.549 302.34 141.66 300.855 141.619 299.226Z" fill="url(#paint24_linear_2_4363)"/>
<path d="M162.658 295.115C162.501 292.633 160.373 290.756 157.91 290.907C157.807 290.914 157.705 290.928 157.609 290.941C159.675 291.223 161.338 292.935 161.468 295.115L163.931 334.426L161.461 364.669C161.283 366.814 159.634 368.464 157.602 368.746C157.677 368.76 157.752 368.78 157.828 368.787C157.951 368.801 158.074 368.801 158.197 368.801C160.503 368.801 162.46 367.02 162.651 364.669L165.121 334.426L162.658 295.115Z" fill="url(#paint25_linear_2_4363)"/>
<path opacity="0.3" d="M139.717 288.129L140.161 283.833C140.558 280.876 140.736 277.899 140.702 274.923C141.078 276.758 141.728 278.553 142.7 280.251L148.591 290.494C149.487 292.062 148.954 294.063 147.4 294.963C146.887 295.259 146.326 295.403 145.772 295.403C144.65 295.403 143.555 294.819 142.946 293.767L139.717 288.129Z" fill="#231F20"/>
<path d="M140.435 234.608L154.489 242.761C160.722 246.378 164.56 253.06 164.56 260.293V300.498C158.854 304.513 143.5 298.916 140.435 292.633L141.352 283.833C141.824 280.34 141.995 276.813 141.865 273.293L140.435 234.608Z" fill="#5D7DBE"/>
<path d="M158.368 243.469H145.895V224.261H162.453V239.365C162.453 241.634 160.626 243.469 158.368 243.469Z" fill="#F3B3B6"/>
<path d="M154.037 246.666H148.824C148.351 246.666 147.968 246.281 147.968 245.807V232.751H154.892V245.807C154.886 246.281 154.509 246.666 154.037 246.666Z" fill="#F3B3B6"/>
<path opacity="0.3" d="M164.56 269.093C163.992 268.859 162.918 268.233 162.727 266.714L161.413 256.505C161.18 254.71 159.552 253.452 157.766 253.679C155.98 253.913 155.898 255.79 156.124 257.584L156.261 267.553C156.747 271.306 159.285 274.331 162.891 275.438C163.445 275.61 163.999 275.713 164.553 275.782V269.093H164.56Z" fill="#231F20"/>
<path d="M165.717 274.063C164.779 274.063 163.835 273.926 162.898 273.637C159.292 272.53 156.753 269.512 156.268 265.751L154.954 255.542C154.721 253.748 155.98 252.111 157.766 251.878C159.552 251.651 161.18 252.909 161.413 254.703L162.727 264.913C162.952 266.68 164.369 267.243 164.8 267.381C165.231 267.511 166.716 267.835 167.892 266.501L177.314 255.735C178.504 254.38 180.557 254.243 181.912 255.439C183.26 256.628 183.397 258.698 182.206 260.052L172.784 270.818C170.937 272.929 168.378 274.063 165.717 274.063Z" fill="#5D7DBE"/>
<path d="M175.761 257.508L177.314 255.735C178.505 254.38 180.557 254.243 181.912 255.439C183.26 256.628 183.397 258.698 182.206 260.052L180.318 262.204L175.761 257.508Z" fill="#F3B3B6"/>
<path d="M185.258 256.903C185.258 259.089 183.492 260.863 181.317 260.863C179.141 260.863 177.376 259.089 177.376 256.903C177.376 254.717 179.141 252.943 181.317 252.943C183.492 252.943 185.258 254.717 185.258 256.903Z" fill="#F3B3B6"/>
<path d="M184.697 250.063L179.743 255.294C179.414 255.645 178.867 255.659 178.518 255.322L178.511 255.315C178.162 254.985 178.149 254.435 178.484 254.084L183.438 248.853C183.766 248.502 184.313 248.488 184.662 248.825L184.669 248.832C185.011 249.162 185.025 249.719 184.697 250.063Z" fill="#F3B3B6"/>
<path d="M163.637 220.899C160.777 217.496 154.085 218.506 150.377 219.703C145.813 221.174 140.093 222.886 139.272 228.434C139.067 229.836 139.21 231.266 139.217 232.69C139.231 235.962 138.478 239.241 137.021 242.17C134.948 246.357 133.949 249.031 136.145 253.376C137.445 255.948 138.28 259.956 140.935 261.537C143.671 263.166 149.46 264.177 152.08 262.183C155.727 259.406 157.568 252.675 157.232 248.351C156.87 243.683 154.55 238.973 155.96 234.518C156.842 231.727 160.578 228.592 162.692 226.626C164.581 224.873 165.532 223.154 163.637 220.899Z" fill="url(#paint26_linear_2_4363)"/>
<path d="M163.637 220.899C161.96 218.905 158.964 218.445 156.028 218.63C158.231 218.768 160.277 219.373 161.557 220.899C163.452 223.154 162.501 224.88 160.626 226.619C158.512 228.578 154.776 231.713 153.894 234.511C152.484 238.973 154.804 243.683 155.166 248.344C155.501 252.668 153.661 259.399 150.014 262.176C149.179 262.809 148.009 263.118 146.73 263.221C148.789 263.4 150.821 263.153 152.094 262.176C155.741 259.399 157.581 252.668 157.246 248.344C156.884 243.676 154.564 238.966 155.974 234.511C156.856 231.72 160.592 228.585 162.706 226.619C164.581 224.873 165.532 223.154 163.637 220.899Z" fill="#FECC55"/>
<defs>
<linearGradient id="paint0_linear_2_4363" x1="225.51" y1="424.832" x2="261.67" y2="424.832" gradientUnits="userSpaceOnUse">
<stop stop-color="#FCC00E"/>
<stop offset="0.8501" stop-color="#F49719"/>
</linearGradient>
<linearGradient id="paint1_linear_2_4363" x1="225.51" y1="420.232" x2="261.67" y2="420.232" gradientUnits="userSpaceOnUse">
<stop offset="0.1499" stop-color="#F49719"/>
<stop offset="1" stop-color="#FCC00E"/>
</linearGradient>
<linearGradient id="paint2_linear_2_4363" x1="212.7" y1="255.59" x2="448.077" y2="255.59" gradientUnits="userSpaceOnUse">
<stop stop-color="#F5FAFE"/>
<stop offset="0.2091" stop-color="#E5F1FA"/>
<stop offset="0.822" stop-color="#B6D3F0"/>
<stop offset="0.9962" stop-color="#A6CBED"/>
</linearGradient>
<linearGradient id="paint3_linear_2_4363" x1="385.752" y1="163.774" x2="424.111" y2="163.774" gradientUnits="userSpaceOnUse">
<stop stop-color="#3C5186"/>
<stop offset="0.3931" stop-color="#4C67A1"/>
<stop offset="0.7545" stop-color="#5877B6"/>
<stop offset="1" stop-color="#5D7DBE"/>
</linearGradient>
<linearGradient id="paint4_linear_2_4363" x1="208.043" y1="121.702" x2="418.752" y2="121.702" gradientUnits="userSpaceOnUse">
<stop stop-color="#3C5186"/>
<stop offset="0.3931" stop-color="#4C67A1"/>
<stop offset="0.7545" stop-color="#5877B6"/>
<stop offset="1" stop-color="#5D7DBE"/>
</linearGradient>
<linearGradient id="paint5_linear_2_4363" x1="207.575" y1="290.511" x2="414.232" y2="290.511" gradientUnits="userSpaceOnUse">
<stop stop-color="#F5FAFE"/>
<stop offset="0.2091" stop-color="#E5F1FA"/>
<stop offset="0.822" stop-color="#B6D3F0"/>
<stop offset="0.9962" stop-color="#A6CBED"/>
</linearGradient>
<linearGradient id="paint6_linear_2_4363" x1="199.012" y1="165.257" x2="414.232" y2="165.257" gradientUnits="userSpaceOnUse">
<stop stop-color="#465D94"/>
<stop offset="1" stop-color="#5D7DBE"/>
</linearGradient>
<linearGradient id="paint7_linear_2_4363" x1="132.461" y1="78.7511" x2="68.7137" y2="107.493" gradientUnits="userSpaceOnUse">
<stop stop-color="#3C5186"/>
<stop offset="0.1045" stop-color="#3E548A"/>
<stop offset="0.6425" stop-color="#47619D"/>
<stop offset="1" stop-color="#4A66A4"/>
</linearGradient>
<linearGradient id="paint8_linear_2_4363" x1="169.225" y1="129.335" x2="110.312" y2="95.7027" gradientUnits="userSpaceOnUse">
<stop stop-color="#3C5186"/>
<stop offset="1" stop-color="#4A66A4"/>
</linearGradient>
<linearGradient id="paint9_linear_2_4363" x1="247.318" y1="146.134" x2="225.498" y2="117.864" gradientUnits="userSpaceOnUse">
<stop offset="0.1499" stop-color="#F49719"/>
<stop offset="1" stop-color="#FCC00E"/>
</linearGradient>
<linearGradient id="paint10_linear_2_4363" x1="250.961" y1="98.0775" x2="176.884" y2="89.5145" gradientUnits="userSpaceOnUse">
<stop offset="0.00380205" stop-color="#3C5186"/>
<stop offset="1" stop-color="#5D7DBE"/>
</linearGradient>
<linearGradient id="paint11_linear_2_4363" x1="368.283" y1="169.027" x2="294.732" y2="157.962" gradientUnits="userSpaceOnUse">
<stop offset="0.00380205" stop-color="#3C5186"/>
<stop offset="1" stop-color="#5D7DBE"/>
</linearGradient>
<linearGradient id="paint12_linear_2_4363" x1="370.388" y1="264.896" x2="394.749" y2="264.896" gradientUnits="userSpaceOnUse">
<stop stop-color="#A9D7F5"/>
<stop offset="1" stop-color="white"/>
</linearGradient>
<linearGradient id="paint13_linear_2_4363" x1="371.54" y1="307.23" x2="398.211" y2="307.23" gradientUnits="userSpaceOnUse">
<stop stop-color="#A9D7F5"/>
<stop offset="1" stop-color="white"/>
</linearGradient>
<linearGradient id="paint14_linear_2_4363" x1="270.143" y1="347.809" x2="306.723" y2="347.809" gradientUnits="userSpaceOnUse">
<stop offset="0.00380205" stop-color="#A6CBED"/>
<stop offset="0.4908" stop-color="#D5E5F7"/>
<stop offset="1" stop-color="white"/>
</linearGradient>
<linearGradient id="paint15_linear_2_4363" x1="280.452" y1="309.82" x2="278.474" y2="322.019" gradientUnits="userSpaceOnUse">
<stop stop-color="#5D7DBE"/>
<stop offset="1" stop-color="#3C5186"/>
</linearGradient>
<linearGradient id="paint16_linear_2_4363" x1="281.835" y1="330.64" x2="287.013" y2="327.114" gradientUnits="userSpaceOnUse">
<stop stop-color="#3C5186"/>
<stop offset="1" stop-color="#5D7DBE"/>
</linearGradient>
<linearGradient id="paint17_linear_2_4363" x1="288.433" y1="335.947" x2="306.723" y2="335.947" gradientUnits="userSpaceOnUse">
<stop offset="0.1499" stop-color="#F49719"/>
<stop offset="1" stop-color="#FCC00E"/>
</linearGradient>
<linearGradient id="paint18_linear_2_4363" x1="73.8865" y1="240.188" x2="102.269" y2="240.188" gradientUnits="userSpaceOnUse">
<stop stop-color="#3C5186"/>
<stop offset="0.116" stop-color="#40578D"/>
<stop offset="0.6906" stop-color="#5472B0"/>
<stop offset="1" stop-color="#5D7DBE"/>
</linearGradient>
<linearGradient id="paint19_linear_2_4363" x1="183.584" y1="290.24" x2="215.231" y2="290.24" gradientUnits="userSpaceOnUse">
<stop stop-color="#FCC00E"/>
<stop offset="0.8501" stop-color="#F49719"/>
</linearGradient>
<linearGradient id="paint20_linear_2_4363" x1="183.584" y1="285.905" x2="215.231" y2="285.905" gradientUnits="userSpaceOnUse">
<stop offset="0.1499" stop-color="#F49719"/>
<stop offset="1" stop-color="#FCC00E"/>
</linearGradient>
<linearGradient id="paint21_linear_2_4363" x1="0.722551" y1="349.755" x2="36.5325" y2="349.755" gradientUnits="userSpaceOnUse">
<stop stop-color="#3C5186"/>
<stop offset="0.116" stop-color="#40578D"/>
<stop offset="0.6906" stop-color="#5472B0"/>
<stop offset="1" stop-color="#5D7DBE"/>
</linearGradient>
<linearGradient id="paint22_linear_2_4363" x1="220.888" y1="256.577" x2="255.515" y2="256.577" gradientUnits="userSpaceOnUse">
<stop stop-color="#4A66A4"/>
<stop offset="0.4999" stop-color="#5573B3"/>
<stop offset="1" stop-color="#5D7DBE"/>
</linearGradient>
<linearGradient id="paint23_linear_2_4363" x1="153.043" y1="283.396" x2="141.298" y2="283.396" gradientUnits="userSpaceOnUse">
<stop stop-color="#A9D7F5"/>
<stop offset="1" stop-color="white"/>
</linearGradient>
<linearGradient id="paint24_linear_2_4363" x1="165.117" y1="281.097" x2="141.3" y2="281.097" gradientUnits="userSpaceOnUse">
<stop stop-color="#A9D7F5"/>
<stop offset="1" stop-color="white"/>
</linearGradient>
<linearGradient id="paint25_linear_2_4363" x1="165.117" y1="290.892" x2="157.596" y2="290.892" gradientUnits="userSpaceOnUse">
<stop stop-color="#A9D7F5"/>
<stop offset="1" stop-color="white"/>
</linearGradient>
<linearGradient id="paint26_linear_2_4363" x1="134.913" y1="263.276" x2="164.67" y2="263.276" gradientUnits="userSpaceOnUse">
<stop offset="0.1499" stop-color="#F49719"/>
<stop offset="1" stop-color="#FCC00E"/>
</linearGradient>
</defs>
</svg>
